<?xml version="1.0" standalone="no"?>
<!DOCTYPE svg PUBLIC "-//W3C//DTD SVG 1.1//EN" "http://www.w3.org/Graphics/SVG/1.1/DTD/svg11.dtd" >
<svg xmlns="http://www.w3.org/2000/svg">
<metadata>Generated by IcoMoon</metadata>
<defs>
<font id="goofont" horiz-adv-x="1024">
<font-face units-per-em="1024" ascent="960" descent="-64" />
<missing-glyph horiz-adv-x="1024" />
<glyph unicode="&#x20;" horiz-adv-x="512" d="" />
<glyph unicode="&#x21;" glyph-name="assets" horiz-adv-x="1160" d="M1089.758 390.958c-0.063 2.584-0.375 5.148-1.084 7.712-0.105 0.354-0.271 0.667-0.397 1.021-0.479 1.542-0.979 3.064-1.73 4.564-0.271 0.542-0.668 1-0.959 1.522-0.375 0.646-0.771 1.251-1.167 1.854-1.189 1.772-2.522 3.397-4.023 4.856-0.333 0.333-0.625 0.709-1 1.043-1.938 1.73-4.064 3.168-6.336 4.356-0.188 0.105-0.333 0.271-0.521 0.354l-221.728 110.874v217.976c0 0.23-0.083 0.458-0.105 0.709-0.063 2.584-0.375 5.148-1.084 7.712-0.105 0.354-0.271 0.668-0.397 1.021-0.479 1.542-0.979 3.064-1.73 4.564-0.271 0.542-0.646 0.979-0.959 1.522-0.375 0.646-0.771 1.251-1.188 1.876-1.188 1.772-2.5 3.376-3.981 4.815-0.354 0.354-0.646 0.729-1.021 1.062-1.938 1.73-4.043 3.168-6.315 4.356-0.188 0.105-0.333 0.271-0.542 0.375l-239.193 119.607c-8.796 4.397-19.174 4.397-27.968 0l-239.297-119.648c-0.208-0.105-0.354-0.271-0.563-0.375-2.229-1.167-4.335-2.605-6.252-4.313-0.397-0.354-0.729-0.771-1.104-1.147-1.438-1.417-2.751-3.002-3.918-4.732-0.416-0.625-0.833-1.251-1.208-1.897-0.292-0.521-0.688-0.959-0.959-1.5-0.751-1.5-1.251-3.043-1.73-4.585-0.105-0.333-0.271-0.646-0.375-1-0.709-2.542-1.021-5.126-1.084-7.712 0-0.25-0.105-0.458-0.105-0.709v-219.832l-222.228-111.125c-0.208-0.105-0.354-0.271-0.542-0.375-2.251-1.167-4.335-2.605-6.252-4.313-0.397-0.354-0.729-0.771-1.104-1.146-1.459-1.438-2.751-3.022-3.939-4.751-0.416-0.625-0.813-1.23-1.189-1.897-0.292-0.521-0.688-0.959-0.959-1.5-0.751-1.5-1.251-3.043-1.73-4.564-0.105-0.333-0.292-0.646-0.375-1-0.709-2.543-1.021-5.126-1.084-7.712-0.022-0.23-0.105-0.458-0.105-0.688v-239.276c0-11.838 6.69-22.654 17.277-27.968l239.276-119.628c4.397-2.188 9.19-3.293 13.985-3.293s9.587 1.104 13.985 3.293l227.376 113.689 223.207-111.604c4.397-2.21 9.19-3.293 13.985-3.293 4.773 0 9.587 1.104 13.985 3.293l239.255 119.648c10.587 5.294 17.277 16.11 17.277 27.968v239.255c0.021 0.23-0.083 0.458-0.083 0.688zM549.057 438.768l-176.753 88.387v169.355l176.753-88.366v-169.375zM611.581 608.143l176.753 88.366v-167.145l-176.753-88.387v167.167zM309.511 79.864l-176.753 88.366v169.375l176.753-88.366v-169.375zM548.787 168.23l-176.732-88.366v169.355l176.732 88.366v-169.355zM788.062 81.927l-176.753 88.387v169.355l176.753-88.366v-169.375zM1027.338 170.314l-176.732-88.387v169.375l176.732 88.366v-169.355z" />
<glyph unicode="&#x22;" glyph-name="texture" d="M62 898v-900h900v900h-900zM886.991 73.009h-374.991v374.991h-375.009v375.009h374.991v-374.991h374.991v-375.009z" />
<glyph unicode="&#x23;" glyph-name="transform" horiz-adv-x="1033" d="M1026.303 131.192l-207.125 157.527c-10.398 7.919-25.381 0.483-25.381-12.592l0.022-99.175h-217.545l0.548 287.633c0.022 11.648-4.585 22.836-12.811 31.084-8.248 8.226-19.414 12.877-31.062 12.877h-288.905v215.461l98.934 0.022c20.511 0 26.785 13.074 13.908 29.066l-157.176 195.104c-12.877 15.992-33.563 15.685-45.979-0.636l-147.458-193.919c-12.416-16.343-5.791-29.702 14.719-29.702l91.432 0.022v-612.843c0-36.349 29.461-65.81 65.81-65.81h615.607l0.022-93.494c0-13.272 15.378-20.642 25.71-12.306l207.081 166.762c7.985 6.471 7.809 18.712-0.351 24.92zM244.045 420.799h244.966l-0.483-243.847h-244.483v243.847z" />
<glyph unicode="&#x25;" glyph-name="timeline" horiz-adv-x="943" d="M567.163 842.943v62.392c0 30.161-24.504 54.665-54.665 54.665h-52.441c-30.141 0-54.665-24.504-54.665-54.665v-62.392c-76.159-13.652-145.798-46.19-203.914-92.648l-55.067 55.067 26.728 26.728c14.975 14.975 14.975 39.249 0 54.224s-39.249 14.975-54.224 0l-107.68-107.68c-14.975-14.975-14.975-39.249 0-54.224 7.497-7.497 17.295-11.236 27.112-11.236s19.615 3.739 27.112 11.236l26.728 26.728 53.514-53.514c-72.42-80.914-116.558-187.636-116.558-304.5 0-252.060 205.065-457.124 457.124-457.124s457.144 205.065 457.144 457.124c0 224.449-162.652 411.51-376.249 449.819zM486.269 12.696c-209.762 0-380.429 170.647-380.429 380.429s170.647 380.448 380.429 380.448 380.448-170.667 380.448-380.448-170.667-380.429-380.448-380.429zM529.352 362.868c-7.497-7.497-17.295-11.236-27.112-11.236s-19.615 3.739-27.112 11.236c-14.975 14.975-14.975 39.249 0 54.224l168.922 168.941c-42.355 33.995-96.004 54.473-154.407 54.473-136.307 0-247.209-110.883-247.209-247.209 0-136.307 110.883-247.209 247.209-247.209s247.209 110.883 247.209 247.209c0 50.255-15.167 96.981-41.013 136.058l-166.487-166.487z" />
<glyph unicode="&#x26;" glyph-name="html" horiz-adv-x="1460" d="M494.597 665.313l-406.183-223.389 406.183-222.172v-110.782l-504.58 283.042v101.042l504.58 283.042v-110.782zM784.672 960.529h66.91l-204.665-1024.427h-66.91l204.665 1024.427zM937.777 665.313v110.782l504.579-283.042v-101.042l-504.58-283.042v110.782l405.396 222.172-405.396 223.389z" />
<glyph unicode="&#x2b;" glyph-name="state-machine" d="M933.277 898h-202.653c-15.875 0-28.723-12.848-28.723-28.723v-306.383c0-15.875 12.848-28.723 28.723-28.723h202.653c15.875 0 28.723 12.848 28.723 28.723v306.383c0 15.875-12.848 28.723-28.723 28.723zM933.277 361.83h-202.653c-15.875 0-28.723-12.848-28.723-28.723v-306.383c0-15.875 12.848-28.723 28.723-28.723h202.653c15.875 0 28.723 12.848 28.723 28.723v306.383c0 15.875-12.848 28.723-28.723 28.723zM489.252 581.544c6.836-5.055 14.821-7.488 22.73-7.488 11.738 0 23.323 5.38 30.83 15.548l93.389 126.479-93.389 126.479c-12.562 17.004-36.555 20.643-53.559 8.062-17.023-12.562-20.623-36.536-8.062-53.559l31.52-42.683h-152.311v114.893c0 15.875-12.848 28.723-28.723 28.723h-240.952c-15.875 0-28.723-12.848-28.723-28.723v-842.553c0-15.875 12.848-28.723 28.723-28.723h240.952c15.875 0 28.723 12.848 28.723 28.723v114.893h152.311l-31.52-42.683c-12.562-17.023-8.962-40.998 8.062-53.559 6.836-5.056 14.821-7.488 22.73-7.488 11.738 0 23.323 5.38 30.83 15.548l93.389 126.479-93.389 126.479c-12.562 17.023-36.556 20.643-53.559 8.062-17.023-12.562-20.623-36.536-8.062-53.559l31.52-42.683h-152.311v459.575h152.311l-31.52-42.683c-12.562-17.023-8.962-40.998 8.062-53.559z" />
<glyph unicode="&#x2c;" glyph-name="stop" horiz-adv-x="1019" d="M163.583 795.615h692.135v-695.228h-692.135v695.228z" />
<glyph unicode="&#x2d;" glyph-name="search" horiz-adv-x="1009" d="M918.8 118.941l-218.453 216.937c36.961 54.751 58.612 120.812 58.612 192.112 0 189.63-154.324 342.022-342.022 342.022s-342.161-154.324-342.161-342.022 154.324-342.022 342.022-342.022c70.887 0 136.671 21.376 191.147 57.923l217.902-217.902 92.953 92.953zM160.281 527.989c0 141.222 115.295 256.517 256.517 256.517s256.517-115.295 256.517-256.517-115.295-256.517-256.517-256.517-256.517 115.157-256.517 256.517z" />
<glyph unicode="&#x2e;" glyph-name="pause" horiz-adv-x="1036" d="M188.293 773.889h284.333v-651.776h-284.333v651.776zM563.186 773.889h284.333v-651.776h-284.333v651.776z" />
<glyph unicode="&#x30;" glyph-name="export" horiz-adv-x="1119" d="M371.767 286.223c-3.986 15.348-6.245 31.379-6.245 47.975 0 89.191 60.567 164.352 142.674 186.919v139.612c-158.108-24.791-279.548-161.563-279.548-326.53 0-41.542 8.229-81.064 22.311-117.712l120.808 69.738zM486.553 761.587l38.769 31.019v-126.728h68.437v126.711l38.769-31.019c6.313-5.048 13.859-7.493 21.352-7.493 10.043 0 19.984 4.397 26.741 12.832 11.805 14.766 9.411 36.289-5.338 48.095l-94.357 75.487c-0.222 0.172-0.497 0.222-0.719 0.394-2.669 2.036-5.63 3.696-8.845 4.876-0.564 0.205-1.13 0.359-1.711 0.53-3.2 1.027-6.535 1.711-10.043 1.711-0.035 0-0.085 0-0.12 0-3.524 0-6.844-0.684-10.043-1.694-0.582-0.172-1.146-0.325-1.711-0.53-3.217-1.18-6.159-2.84-8.845-4.876-0.222-0.172-0.497-0.222-0.719-0.394l-94.375-75.487c-14.748-11.805-17.144-33.329-5.338-48.095 11.806-14.748 33.346-17.178 48.095-5.338zM610.869 521.1c82.125-22.567 142.691-97.728 142.691-186.919 0-16.579-2.258-32.628-6.245-47.975l120.791-69.738c14.081 36.648 22.328 76.154 22.328 117.712 0 164.95-121.459 301.739-279.566 326.53v-139.612zM238.348 64.931l-51.379 15.827 99.080 57.197-34.219 59.266-97.095-56.049 12.353 49.275c4.603 18.341-6.535 36.922-24.86 41.524-18.341 4.603-36.922-6.535-41.524-24.86l-32.012-127.618c-0.24-0.958-0.274-1.934-0.428-2.891-0.188-1.13-0.428-2.225-0.497-3.37-0.085-1.267 0.035-2.515 0.103-3.764 0.051-0.941 0-1.865 0.12-2.806 0.205-1.556 0.616-3.063 1.027-4.568 0.172-0.616 0.24-1.232 0.444-1.831 0.719-2.122 1.625-4.141 2.737-6.074 0.035-0.051 0.035-0.103 0.068-0.154 0.103-0.172 0.24-0.274 0.342-0.444 1.3-2.156 2.858-4.123 4.603-5.954 0.53-0.564 1.061-1.077 1.625-1.609 1.642-1.506 3.422-2.857 5.355-4.038 0.394-0.24 0.719-0.53 1.13-0.753 2.036-1.13 4.192-2.104 6.518-2.806l126.369-38.923c3.353-1.027 6.757-1.523 10.077-1.523 14.629 0 28.162 9.444 32.696 24.158 5.561 18.067-4.568 37.23-22.635 42.79zM1051.040 75.146c-0.085 0.668-0.051 1.317-0.172 1.985l-20.685 116.291c-3.302 18.597-21.061 30.985-39.677 27.699-18.615-3.302-31.001-21.079-27.699-39.677l7.802-43.902-95.915 55.383-34.219-59.267 95.898-55.366-38.359-13.893c-17.777-6.433-26.964-26.040-20.531-43.817 5.030-13.928 18.17-22.584 32.166-22.584 3.866 0 7.802 0.668 11.651 2.053l107.498 38.923c1.574 0.564 3.029 1.317 4.465 2.088 0.291 0.154 0.616 0.257 0.907 0.428 2.293 1.317 4.346 2.926 6.228 4.688 0.479 0.444 0.941 0.923 1.402 1.403 3.387 3.542 6.023 7.716 7.63 12.336 0.24 0.719 0.394 1.437 0.582 2.156 0.359 1.317 0.701 2.635 0.907 4.003 0.137 0.873 0.172 1.728 0.24 2.601 0.085 1.232 0.137 2.447 0.103 3.696-0.017 0.941-0.119 1.848-0.222 2.772zM696.398 197.067c-35.107-35.057-83.425-56.905-136.857-56.905s-101.75 21.832-136.857 56.905l-120.757-69.72c60.669-75.469 153.471-124.059 257.615-124.059s196.945 48.591 257.615 124.059l-120.757 69.72z" />
<glyph unicode="&#x31;" glyph-name="project" d="M512-2c-248.119 0-450 201.881-450 450s201.881 450 450 450 450-201.881 450-450-201.881-450-450-450zM512 673c-124.069 0-225-100.931-225-225s100.931-225 225-225 225 100.931 225 225-100.931 225-225 225z" />
<glyph unicode="&#x32;" glyph-name="mesh" d="M928 704l-396.8 217.6c-12.8 6.4-19.2 6.4-32 0l-403.2-217.6c-12.8-6.4-19.2-19.2-19.2-38.4v-441.6c0-12.8 6.4-25.6 19.2-38.4l403.2-217.6c6.4 0 12.8-6.4 19.2-6.4s12.8 0 19.2 6.4l403.2 217.6c12.8 6.4 19.2 19.2 19.2 38.4v441.6c-12.8 19.2-19.2 32-32 38.4zM147.2 614.4l326.4-179.2v-364.8l-326.4 179.2v364.8zM550.4 70.4v364.8l326.4 179.2v-364.8l-326.4-179.2z" />
<glyph unicode="&#x33;" glyph-name="material" d="M512 898c-248.138 0-450-201.862-450-450s201.862-450 450-450 450 201.862 450 450-201.862 450-450 450zM512 73c-206.775 0-375 168.225-375 375 0 66.262 17.438 128.456 47.719 182.531-0.45-5.531-0.844-11.1-0.844-16.744 0-110.175 89.644-199.838 199.837-199.838 110.175 0 199.837 89.644 199.837 199.837 0 98.587-71.831 180.525-165.862 196.725 30.206 7.875 61.688 12.487 94.313 12.487 206.775 0 375-168.225 375-375s-168.225-375-375-375zM637.513 407.012c-37.819 0-68.569-30.769-68.569-68.569 0-37.819 30.769-68.569 68.569-68.569s68.569 30.769 68.569 68.569c0 37.8-30.769 68.569-68.569 68.569z" />
<glyph unicode="&#x34;" glyph-name="animation" horiz-adv-x="1033" d="M844.8 748.8c0-49.485-40.115-89.6-89.6-89.6s-89.6 40.115-89.6 89.6c0 49.485 40.115 89.6 89.6 89.6s89.6-40.115 89.6-89.6zM947.2 646.4c-19.2 19.2-51.2 19.2-70.4 0l-115.2-115.2-275.2 262.4c-19.2 19.2-51.2 19.2-70.4 0l-153.6-153.6c-12.8-12.8-19.2-25.6-19.2-38.4s6.4-25.6 19.2-38.4c19.2-19.2 51.2-19.2 70.4 0l115.2 115.2 83.2-83.2-454.4-454.4c-6.4-6.4-12.8-19.2-12.8-32s6.4-25.6 12.8-38.4c19.2-19.2 51.2-19.2 70.4 0l268.8 268.8 76.8-76.8-108.8-121.6c-12.8-12.8-12.8-25.6-12.8-38.4s6.4-25.6 12.8-38.4c12.8-12.8 25.6-12.8 38.4-12.8s25.6 6.4 38.4 12.8l153.6 153.6c12.8 12.8 12.8 25.6 12.8 38.4s-6.4 25.6-12.8 38.4l-115.2 121.6 115.2 115.2 108.8-108.8c19.2-19.2 51.2-19.2 70.4 0l153.6 153.6c19.2 19.2 19.2 51.2 0 70.4z" />
<glyph unicode="&#x35;" glyph-name="camera" horiz-adv-x="1067" d="M988.212 360.464c-8.829 5.097-19.705 5.040-28.478-0.113l-130.964-76.623v121.642c0 15.688-12.713 28.421-28.421 28.421h-659.956c-15.707 0-28.421-12.733-28.421-28.421v-378.948c0-15.688 12.713-28.421 28.421-28.421h659.956c15.707 0 28.421 12.733 28.421 28.421v89.98l130.964-76.623c4.434-2.595 9.379-3.884 14.343-3.884 4.869 0 9.758 1.251 14.135 3.771 8.829 5.059 14.287 14.476 14.287 24.651v271.497c0 10.175-5.457 19.592-14.287 24.651zM262.262 502.701c108.985 0 197.659 88.673 197.659 197.659s-88.673 197.64-197.659 197.64c-108.985 0-197.659-88.673-197.659-197.659s88.673-197.64 197.659-197.64zM262.262 822.211c67.207 0 121.869-54.664 121.869-121.869s-54.664-121.869-121.869-121.869c-67.207 0.020-121.869 54.664-121.869 121.869s54.664 121.869 121.869 121.869zM700.628 502.701c108.985 0 197.659 88.655 197.659 197.64s-88.673 197.659-197.659 197.659-197.659-88.673-197.659-197.659 88.655-197.64 197.659-197.64zM700.628 822.211c67.207 0 121.869-54.664 121.869-121.869s-54.664-121.869-121.869-121.869-121.869 54.664-121.869 121.869 54.664 121.869 121.869 121.869z" />
<glyph unicode="&#x36;" glyph-name="light" horiz-adv-x="663" d="M331.636 898c-160.724 0-291.494-130.77-291.494-291.494 0-101.804 55.921-157.617 96.74-198.4 16.935-16.898 31.57-31.498 38.394-45.147 20.113-40.19 30.654-91.927 30.744-92.448 2.532-12.571 13.577-21.639 26.417-21.639h63.284v188.092l-83.217 55.472c-11.098 7.399-17.186 20.347-15.803 33.6 1.383 13.27 10.003 24.674 22.394 29.631l114.787 45.901-27.637 27.638c-14.026 14.026-14.026 36.778 0 50.785 14.026 14.026 36.76 14.026 50.803 0l66.14-66.157c8.548-8.548 12.212-20.795 9.787-32.612s-10.631-21.639-21.837-26.129l-101.947-40.783 42.381-28.248c10.003-6.662 16-17.868 16-29.882v-207.325h63.284c13.577 0 25.052 10.182 26.739 23.65 0.053 0.396 5.243 40.083 30.439 90.437 4.436 8.853 17.617 21.944 31.588 35.79 41.231 40.89 103.528 102.702 103.528 207.738-0.018 160.76-130.788 291.53-291.512 291.53zM430.837 194.604h-198.4c-19.825 0-35.916-16.090-35.916-35.916s16.090-35.916 35.916-35.916h198.417c19.825 0 35.916 16.090 35.916 35.916s-16.090 35.916-35.934 35.916zM430.837 69.832h-198.4c-19.825 0-35.916-16.090-35.916-35.916s16.090-35.916 35.916-35.916h198.417c19.825 0 35.916 16.090 35.916 35.916s-16.090 35.916-35.934 35.916z" />
<glyph unicode="&#x37;" glyph-name="sound" horiz-adv-x="1123" d="M569.136 895.301c-10.5 4.827-22.813 3.113-31.58-4.413l-259.594-222.517h-180.417c-16.332 0-29.552-13.219-29.552-29.55v-306.147c0-16.332 13.219-29.55 29.552-29.55h180.417l259.574-222.498c5.457-4.689 12.313-7.113 19.247-7.113 4.177 0 8.393 0.887 12.333 2.699 10.481 4.827 17.198 15.307 17.198 26.852v765.386c0.020 11.543-6.698 22.026-17.179 26.852zM737.596 703.044c-15.367 15.387-40.327 15.387-55.713 0s-15.385-40.327 0-55.713c89.066-89.086 89.066-234.042 0-323.127-15.385-15.385-15.385-40.327 0-55.713 7.684-7.703 17.769-11.543 27.857-11.543s20.173 3.842 27.857 11.543c119.801 119.798 119.801 314.737 0 434.555zM827.45 858.993c-15.367 15.387-40.347 15.387-55.713 0-15.385-15.385-15.385-40.327 0-55.713 175.079-175.099 175.079-459.968 0-635.049-15.385-15.385-15.385-40.327 0-55.713 7.684-7.703 17.769-11.543 27.857-11.543s20.173 3.842 27.857 11.543c205.812 205.792 205.812 540.662 0 746.473z" />
<glyph unicode="&#x38;" glyph-name="script" d="M138.278 75.814c66.803 0 72.932 56.279 73.204 73.515v38.616h-110.574c-21.477 0-38.907-17.431-38.907-38.907 0-22.391 5.525-48.789 17.976-73.223h58.302zM810.962 898h-373.703c-11.088 0-23.189-1.382-35.542-4.26 81.218-18.481 111.818-93.863 111.818-146.778v-35.834h260.075c5.389 0 10.524-1.089 15.173-3.073h134.307c21.477 0 38.907 17.431 38.907 38.907 0 60.714-40.23 151.038-151.038 151.038zM474.611 633.334c-21.477 0-38.907 17.431-38.907 38.907v74.722c-0.273 16.944-6.4 73.223-73.204 73.223s-72.932-56.279-73.204-73.515c-0.078-5.116-1.206-9.98-3.073-14.435v-455.914c1.985-4.669 3.073-9.785 3.073-15.154v-112.13c0-53.322-31.048-129.425-113.648-147.186 11.458-2.47 23.87-3.852 37.371-3.852h373.703c60.714 0 151.018 40.211 151.018 151.038v484.297h-263.129z" />
<glyph unicode="&#x39;" glyph-name="user" horiz-adv-x="1023" d="M890.014 586.488c0-64.4-52.207-116.606-116.606-116.606s-116.606 52.207-116.606 116.606c0 64.4 52.207 116.606 116.606 116.606s116.606-52.207 116.606-116.606zM418.020 747.494c49.594-53.325 132.544-53.325 182.138 0 40.688 43.762 97.444 71.569 160.819 74.85-71.438 47.738-157.256 75.656-249.619 75.656-92.531 0-178.481-27.994-249.994-75.881 61.706-4.275 116.85-31.837 156.656-74.625zM361.358 586.469c0-64.389-52.198-116.588-116.587-116.588s-116.588 52.198-116.588 116.588c0 64.389 52.198 116.587 116.588 116.587s116.587-52.198 116.587-116.587zM773.408 349.956c-68.419 0-129.9 28.894-173.231 75.506-49.612 53.325-132.544 53.325-182.137 0-43.35-46.613-104.831-75.506-173.25-75.506-73.669 0-139.444 33.694-182.831 86.512 6.169-243.15 204.769-438.469 449.4-438.469 246.825 0 447.019 198.787 449.737 444.956-43.219-56.456-111.094-93-187.687-93zM586.358 260.5h-150c-20.719 0-37.5 16.781-37.5 37.5s16.781 37.5 37.5 37.5h150c20.719 0 37.5-16.781 37.5-37.5s-16.781-37.5-37.5-37.5z" />
<glyph unicode="&#x3a;" glyph-name="wireframe" d="M186.111 773.889v-651.776h651.776v651.776h-651.776zM765.538 194.462h-507.074v507.074h507.074v-507.074z" />
<glyph unicode="&#x3b;" glyph-name="autokey" horiz-adv-x="1018" d="M466.271 525.019c-31.261 95.646-121.228 164.993-227.17 164.993-131.839 0-239.101-107.232-239.101-239.072s107.261-239.101 239.101-239.101c117.959 0 215.985 85.952 235.344 198.462h227.715v-88.419c0-31.662 25.697-57.359 57.359-57.359s57.359 25.697 57.359 57.359v88.419h86.038v-146.982c0-31.662 25.697-57.359 57.359-57.359s57.359 25.697 57.359 57.359v261.7h-551.363zM239.101 326.557c-68.601 0-124.383 55.81-124.383 124.383s55.782 124.354 124.383 124.354c68.573 0 124.354-55.782 124.354-124.354s-55.782-124.383-124.354-124.383z" />
<glyph unicode="&#x3c;" glyph-name="zoom-out" horiz-adv-x="1009" d="M928.516 118.941l-218.453 216.937c36.961 54.751 58.612 120.812 58.612 192.112 0 189.63-154.324 342.022-342.022 342.022s-342.161-154.324-342.161-342.022 154.324-342.022 342.022-342.022c70.887 0 136.671 21.376 191.147 57.923l217.902-217.902 92.953 92.953zM169.998 527.989c0 141.222 115.295 256.517 256.517 256.517s256.517-115.295 256.517-256.517-115.295-256.517-256.517-256.517-256.517 115.157-256.517 256.517zM270.398 555.847h314.164v-76.266h-314.164v76.266z" />
<glyph unicode="&#x3e;" glyph-name="zoom-in" horiz-adv-x="1005" d="M430.413 185.955c-187.706 0-341.961 154.254-341.961 341.961s154.254 341.961 341.961 341.961 341.961-152.395 341.961-341.961-152.396-341.961-341.961-341.961zM430.413 784.385c-141.245 0-256.47-115.225-256.47-256.47s115.225-256.47 256.47-256.47 256.47 115.225 256.47 256.47-115.225 256.47-256.47 256.47zM839.279 26.125l-249.037 249.037 91.066 92.924 250.895-249.037zM274.3 563.225h314.083v-76.197h-314.083v76.197zM393.243 680.31h76.197v-312.224h-76.198v312.224z" />
<glyph unicode="&#x41;" glyph-name="delete-2" d="M817.498 690.753l-62.768 62.767-242.742-242.743-242.743 242.743-62.767-62.767 242.743-242.743-242.743-242.766 62.767-62.768 242.743 242.743 242.742-242.743 62.768 62.768-242.743 242.766z" />
<glyph unicode="&#x42;" glyph-name="default" d="M763.773 447.983c0-139.041-112.715-251.757-251.757-251.757s-251.757 112.715-251.757 251.757c0 139.041 112.715 251.757 251.757 251.757 139.041 0 251.757-112.715 251.757-251.757z" />
<glyph unicode="&#x43;" glyph-name="save" d="M576 896h96v-192h-96v192zM832 896h-96v-256h-448v256h-224v-896h896v768l-128 128zM832 102.4h-640v448h640v-448z" />
<glyph unicode="&#x44;" glyph-name="frame-all" horiz-adv-x="1025" d="M285.417-2h-223.357v900h223.357v-103.525h-119.831v-692.949h119.831zM963.225-2h-223.357v103.525h119.831v692.949h-119.831v103.525h223.357zM313.822 611.341l113.318 113.318 113.318-113.318-113.318-113.318-113.318 113.318zM540.457 506.197l105.138 105.138 105.138-105.138-105.138-105.138-105.138 105.138zM313.832 270.49l177.517 177.517 177.517-177.517-177.517-177.518-177.517 177.518z" />
<glyph unicode="&#x45;" glyph-name="grid" d="M286.125 898h102.916v-900h-102.916v900zM634.984 898h102.916v-900h-102.916v900zM62 673.901h900v-102.916h-900v102.916zM62 324.45h900v-102.916h-900v102.916z" />
<glyph unicode="&#x46;" glyph-name="frame" horiz-adv-x="1025" d="M285.443-2h-223.383v900h223.383v-103.525h-119.857v-692.949h119.857zM963.252-2h-223.383v103.525h119.857v692.949h-119.857v103.525h223.383zM271.814 447.999l240.838 240.838 240.838-240.838-240.838-240.838-240.838 240.838z" />
<glyph unicode="&#x47;" glyph-name="globe" horiz-adv-x="1023" d="M510.968 898c250.594-3.221 449.821-198.512 450.179-449.821 0.358-250.568-197.744-449.821-449.029-450.179-250.594-0.358-449.821 197.744-450.179 449.029-0.358 250.594 197.744 447.034 449.029 450.971zM639.269 572.543c-13.602 10.304-19.738 29.377-13.577 48.758 5.113 16.031 20.301 9.231 35.106 11.633-12.733 7.568-19.432 15.929-24.469 25.619-2.199 4.219-5.625 4.731-10.074 5.394-12.656 1.867-17.335 15.315-9.332 25.926 2.787 3.707 7.159 6.315 9.563 10.227 11.096 18.025 16.594 17.975 28.279-0.588 2.173-3.452 4.602-6.954 7.594-9.69 4.832-4.398 9.128-13.244 17.31-6.034 8.949 7.9 1.304 12.631-4.321 18.307-14.6 14.727-11.889 52.389 4.117 65.582 5.957 4.909 12.196 6.315 19.738 4.014 9.46-2.889 19.15-4.986 28.738-7.415-73.483 59.421-158.421 76.756-253.713 71.284 13.475-11.966 22.040-20.838 39.4-13.193 11.046 4.858 25.619 2.813 38.506 2.019 11.992-0.742 21.043-9.946 30.81-15.827 8.106-4.883-3.477-11.915-2.992-18.869 2.019-27.971-4.756-31.883-37.688-41.216-19.252-5.446-38.481-11.275-52.21-27.665-5.6-6.699-12.606-10.483-21.887-5.779-9.588 4.858-14.523 12.707-13.142 22.883 1.253 9.051 2.301 18.742 10.969 25.185 5.932 4.398 8.258 13.449 3.068 16.85-7.824 5.113-14.957 15.469-27.894 9.025-9.844-4.909-6.060-10.406-3.963-17.258 4.551-14.856 3.835-26.719-14.6-32.779-12.273-4.040-21.656-12.119-20.863-28.688 0.767-16.031 7.619-31.091 3.631-48.221-3.81-16.338-8.54-22.551-25.644-18.563-5.856 1.356-10.15 3.579-15.622-2.327-8.617-9.358-21.784-11.148-32.932-16.363-8.258-3.887-17.514 5.829-23.779-0.716-14.752-15.418-38.429-18.435-50.471-36.435-7.108-10.637-15.546-18.767-26.002-25.671-20.199-13.346-24.443-25.568-18.128-49.296 2.148-8.054 1.202-16.057-9-13.398-8.975 2.352-19.253 6.085-19.253 19.688 0 5.523 4.423 18.256-6.469 15.469-8.719-2.225-14.676 4.269-21.682 1.738-13.014-4.704-24.852-45.051-16.287-61.696 2.736 15.648 16.875 12.144 24.673 18.46 9.716 7.9 19.662 13.296 29.889 4.117 9.639-8.642 27.179-4.193 30.912-11.608 9.127-18.154 25.185-17.769 39.733-21.144 22.551-5.267 27.077-10.048 27.665-33.085 0.231-9.486-3.273-21.35 7.952-26.923 8.31-4.117 7.594-8.898 5.139-15.699-3.682-10.176 0.179-15.264 10.943-17.054 14.165-2.352 27.256-7.977 36.281-19.662 16.363-21.171 35.693-33.725 63.486-39.938 38.506-8.617 63-24.008 29.992-68.216-4.296-5.753-2.531-10.815-2.327-16.568 0.742-19.994 3.707-41.037-20.762-51.034-4.756-1.943-7.415-6.188-5.421-11.582 4.168-11.377 0.409-21.912-2.377-32.856-8.258-32.497 3.068-48.631 37.79-54.997 3.835-0.69 7.262-3.017 7.721-6.443 1.662-11.966 10.79-11.046 18.767-11.173 29.481-0.46 58.883-1.356 88.313 3.221 79.952 12.426 149.523 45.818 208.764 100.841 6.111 5.676 12.477 11.352 11.096 23.165-3.81-3.4-5.829-5.497-8.131-7.21-26.693-19.892-49.296-46.508-84.963-51.75-5.088-0.742-10.79-4.551-14.676 1.048-3.758 5.446 0.998 10.048 3.887 14.267 13.065 19.023 18.716 41.19 21.758 63.025 1.969 14.19 4.935 26.463 14.012 36.869 9.204 10.585 12.221 23.6 11.966 36.204-0.281 14.752-1.227 31.475-17.182 39.579-5.856 2.966-13.909 3.196-11.685 11.915 2.404 9.435 9.716 11.019 18.128 6.775 2.94-1.483 5.779-2.481 6.981 1.406 0.563 1.815-0.69 6.085-1.304 6.111-13.654 0.716-21.477 17.335-38.582 11.506-18.281-6.238-40.269-10.279-57.426-4.372-28.918 9.971-49.832 32.523-60.596 62.642-2.915 8.182-3.529 15.904 0.946 23.779 4.321 7.619 4.628 16.236 2.019 24.111-3.35 10.074 0.231 18.204 3.631 27.154 12.912 33.904 46.227 51.801 62.156 83.199zM400.359 75.804c-30.171 21.196-56.71 45.767-79.773 74.429-21.452 26.668-35.744 60.264-70.594 74.582-4.423 1.815-7.287 7.543-10.79 11.531-12.068 13.704-23.139 28.227-35.207 41.957-11.838 13.449-18.154 30.529-14.19 49.219 4.346 20.531 6.162 39.606-17.873 49.807-18.486 7.824-16.671 30.579-30.4 41.676-5.65 4.577-7.313 17.565-15.29 13.909-7.748-3.554-3.682-15.111-2.736-22.858 14.216-118.202 68.65-213.008 165.938-282.298 33.673-23.957 70.568-41.574 110.915-51.954zM178.3 419.619c-0.818-16.977-0.69-18.231 4.832-19.841 7.85-2.275 12.707 2.046 18.179 7.492 13.654 13.577 25.644 13.986 42.008 2.838 9.639-6.571 20.608-5.6 30.579-3.529 5.676 1.176 3.144 9.742 1.79 14.267-2.659 8.873 1.994 23.293-11.173 25.108-19.867 2.762-40.142 10.432-60.367 0.486-6.238-3.068-11.481 0.256-15.929 4.475-5.088 4.832-9.921 9.946-14.881 14.957-2.019 2.046-4.244 5.369-7.082 3.733-2.096-1.202-3.248-4.731-4.040-7.466-1.637-5.65 0.127-10.304 4.909-14.012 9.869-7.594 12.707-17.975 11.173-28.508zM823.386 551.577c5.498 2.813 11.685 0.435 15.392 4.96 1.611 1.943 0.409 5.088-1.918 5.906-7.185 2.481-12.707 11.633-22.219 5.216-8.412-5.702-15.801-1.637-22.244 3.963-5.727 4.96-10.662 10.815-16.185 16.031-2.275 2.148-5.574 6.904-8.361 2.352-5.216-8.438-10.074-18.332-8.412-27.971 1.176-6.827 13.193-10.892 17.182-9.025 16.568 7.798 31.832 2.813 46.764-1.432zM351.652 800.841c35.361 17.693 81.332-2.992 115.236 32.6-43.236-3.579-80.258-15.085-115.236-32.6z" />
<glyph unicode="&#x48;" glyph-name="help" horiz-adv-x="1029" d="M514.395-2c-249.267 0-452.092 201.883-452.092 450 0 248.143 202.824 450 452.092 450s452.092-201.857 452.092-450c0-248.117-202.824-450-452.092-450zM514.395 793.397c-191.606 0-347.49-154.942-347.49-345.397s155.884-345.398 347.49-345.398 347.49 154.942 347.49 345.398-155.884 345.397-347.49 345.397zM666.853 549.047c0-13.755-1.673-25.838-5.021-36.245s-8.080-20.005-14.148-28.739c-6.067-8.735-13.389-16.972-21.993-24.686-8.603-7.688-18.331-15.716-29.237-24.058-6.695-5.413-12.264-10.199-16.658-14.357-4.419-4.184-7.871-8.421-10.382-12.814-2.511-4.367-4.289-8.944-5.335-13.73s-1.568-10.512-1.568-17.181v-16.239h-97.463v23.719c0 10.826 1.046 20.528 3.113 29.053 2.066 8.526 5.204 16.344 9.362 23.431s9.258 13.964 15.298 20.607c6.014 6.668 13.207 13.546 21.548 20.633l20.607 19.377c7.087 6.25 13.128 12.814 18.122 19.691 4.995 6.851 7.505 15.089 7.505 24.686 0 13.311-4.054 23.928-12.186 31.878-8.108 7.898-19.273 11.846-33.42 11.846-17.495 0-30.622-5.936-39.356-17.809-8.76-11.872-13.546-25.288-14.382-40.297l-99.346 10.643c2.51 22.49 8.237 42.26 17.181 59.363 8.944 17.077 20.528 31.224 34.675 42.495 14.148 11.244 30.203 19.691 48.143 25.288 17.939 5.622 36.951 8.446 56.982 8.446 18.803 0 37.107-2.406 54.837-7.192 17.756-4.786 33.525-12.291 47.306-22.49 13.807-10.225 24.87-23.222 33.211-39.043 8.421-15.873 12.605-34.624 12.605-56.276zM575.012 272.896c0-16.658-5.831-30.727-17.495-42.181-11.663-11.453-26.047-17.181-43.096-17.181-8.342 0-16.162 1.464-23.431 4.367-7.296 2.903-13.73 7.060-19.377 12.5-5.622 5.413-10.094 11.663-13.416 18.724-3.347 7.087-4.995 14.801-4.995 23.117 0 7.897 1.568 15.507 4.681 22.803 3.112 7.27 7.505 13.625 13.127 19.063 5.622 5.413 12.186 9.676 19.691 12.814s15.403 4.681 23.744 4.681c8.317 0 16.135-1.542 23.431-4.681 7.296-3.113 13.73-7.296 19.377-12.5 5.622-5.204 9.99-11.481 13.128-18.75 3.059-7.27 4.628-14.88 4.628-22.777z" />
<glyph unicode="&#x49;" glyph-name="canvas" d="M979.2 960h-934.4c-25.6 0-44.8-19.2-44.8-44.8v-940.8c0-19.2 19.2-38.4 44.8-38.4h940.8c25.6 0 44.8 19.2 44.8 44.8v934.4c-6.4 25.6-25.6 44.8-51.2 44.8zM876.8 876.8c-102.4-89.6-230.4-134.4-364.8-134.4s-262.4 44.8-364.8 134.4h729.6zM83.2 812.8c89.6-102.4 134.4-230.4 134.4-364.8s-44.8-262.4-134.4-364.8v729.6zM147.2 19.2c102.4 83.2 230.4 134.4 364.8 134.4s262.4-44.8 364.8-134.4h-729.6zM940.8 83.2c-83.2 102.4-134.4 230.4-134.4 364.8s44.8 262.4 134.4 364.8v-729.6z" />
<glyph unicode="&#x4a;" glyph-name="scale" d="M62.181 898v-348.384h-0.181l0.181-51.494v-500.121h900v900h-900zM165.844 794.338h619.799l-243.659-244.722h-376.14v244.722zM167.217 101.662l-1.192 344.289h345.119l-3.603-344.289h-340.325zM611.232 101.662l3.888 374.482 243.427 244.514v-618.996h-247.313z" />
<glyph unicode="&#x4c;" glyph-name="wrong" d="M830.924 766.95c-84.532 84.505-197.032 131.050-316.837 131.050-120.588 0-234.053-47.066-319.55-132.563-85.184-85.132-132.224-198.205-132.537-318.351-0.339-120.248 46.205-233.192 131.050-318.011 84.48-84.505 197.005-131.050 316.81-131.050 0.026 0 0.026 0 0.026 0 120.588 0 234.079 47.066 319.55 132.563 85.183 85.158 132.224 198.232 132.537 318.376 0.339 120.197-46.205 233.14-131.050 317.985zM717.172 726.979l-205.197-205.172-203.737 203.737c59.434 43.962 130.763 68.095 205.851 68.095 74.227 0 144.564-23.612 203.084-66.66zM283.713 705.638l-29.377-29.404c4.618 5.192 9.053 10.488 13.985 15.419 4.93 4.957 10.227 9.367 15.393 13.985zM166.334 446.825c0.208 74.774 24.342 145.765 68.121 204.938l203.737-203.737-205.197-205.172c-43.231 58.755-66.843 129.407-66.66 203.971zM509.861 102.36c-74.2 0-144.539 23.612-203.058 66.686l205.197 205.172 203.737-203.737c-59.434-43.987-130.737-68.121-205.876-68.121zM740.313 190.413l29.325 29.325c-4.592-5.167-9.027-10.462-13.957-15.393-4.957-4.93-10.227-9.34-15.367-13.932zM789.519 244.263l-203.737 203.737 205.197 205.172c43.257-58.78 66.869-129.432 66.686-203.998-0.234-74.748-24.368-145.738-68.147-204.911z" />
<glyph unicode="&#x4d;" glyph-name="warning" horiz-adv-x="1029" d="M951.053 144.25l-388.125 663.75c-28.125 50.625-78.75 50.625-106.875 0l-382.5-663.75c-28.125-50.625-5.625-90 50.625-90h770.625c61.874-5.625 84.375 39.375 56.25 90zM557.303 599.875l-11.25-292.5h-67.5l-11.25 292.5h90zM557.303 217.375c0-28.125-22.5-45.001-45.001-45.001s-45.001 22.5-45.001 45.001c0 28.125 22.5 45.001 45.001 45.001s45.001-16.875 45.001-45.001z" />
<glyph unicode="&#x4e;" glyph-name="fold-right" horiz-adv-x="1031" d="M521.926-2h-459.502v900h459.502v-254.303h-105.433v148.871h-248.636v-689.135h248.636v145.049h105.433zM356.001 500.729h544.956v-105.433h-544.956v105.433zM691.435 114.346l-81.183 67.267 220.354 265.981-219.932 259.101 80.366 68.241 277.156-326.525z" />
<glyph unicode="&#x4f;" glyph-name="previous-key" horiz-adv-x="1074" d="M636.883 122.111v651.776l-441.683-323.178zM760.717 773.889h117.798v-651.776h-117.798v651.776z" />
<glyph unicode="&#x50;" glyph-name="preview" d="M512 653.305c-279.492 0-421.875-205.664-421.875-237.305s142.383-237.305 421.875-237.305c279.492 0 421.875 205.664 421.875 237.305s-142.383 237.305-421.875 237.305zM512 231.43c-105.469 0-189.844 84.375-189.844 184.57s84.375 184.57 189.844 184.57c105.469 0 189.844-84.375 189.844-184.57s-89.648-184.57-189.844-184.57zM606.922 416c0-52.424-42.498-94.922-94.922-94.922s-94.922 42.498-94.922 94.922c0 52.424 42.498 94.922 94.922 94.922s94.922-42.498 94.922-94.922z" />
<glyph unicode="&#x51;" glyph-name="list" d="M63.154 768.282h895.436v-128.564h-895.436v128.564zM63.154 513.41h895.436v-128.564h-895.436v128.564zM63.154 256.282h895.436v-128.564h-895.436v128.564z" />
<glyph unicode="&#x52;" glyph-name="entity-html" horiz-adv-x="894" d="M448.001-64c-4.511 0-9.022 2.256-13.533 4.511l-419.524 241.339c-9.022 4.511-13.533 13.533-13.533 22.555v487.189c0 9.022 4.511 18.044 13.533 22.555l419.524 241.339c9.022 4.511 18.044 4.511 27.066 0l419.524-241.339c9.022-4.511 13.533-13.533 13.533-22.555v-484.934c0-9.022-4.511-18.044-13.533-22.555l-419.524-243.595c-4.511-2.256-9.022-4.511-13.533-4.511zM55.542 222.449l392.458-227.806 392.458 227.806v453.357l-392.458 225.551-392.458-225.551v-453.357zM319.436 341.991c-4.511 0-9.022 0-13.533 2.256l-155.63 74.432c-11.278 4.511-18.044 15.789-18.044 27.066s6.767 22.555 18.044 29.322l155.63 76.687c15.789 6.767 33.833 2.256 42.855-13.533 6.767-15.789 2.256-33.833-13.533-42.855l-96.987-47.366 96.987-45.11c15.789-6.767 22.555-27.066 15.789-42.855-9.022-11.278-20.3-18.044-31.577-18.044zM414.167 272.070c-2.256 0-4.511 0-6.767 0-15.789 4.511-27.066 20.3-22.555 38.343l67.665 288.705c4.511 15.789 20.3 27.066 38.343 22.555 15.789-4.511 27.066-20.3 22.555-38.343l-67.665-288.705c-4.511-13.533-15.789-22.555-31.577-22.555zM574.308 341.991c-11.278 0-22.555 6.767-27.066 18.044-6.767 15.789-2.256 33.833 13.533 42.855l96.987 47.366-96.987 45.11c-15.789 6.767-22.555 27.066-15.789 42.855 6.767 15.789 27.066 22.555 42.855 15.789l155.63-74.432c11.278-4.511 18.044-15.789 18.044-27.066s-6.767-22.555-18.044-29.322l-153.374-78.943c-4.511-2.256-11.278-2.256-15.789-2.256z" />
<glyph unicode="&#x53;" glyph-name="scene" d="M512 4.267c-245.76 0-443.733 197.973-443.733 443.733s197.973 443.733 443.733 443.733 443.733-197.973 443.733-443.733-197.973-443.733-443.733-443.733zM512 666.453c-122.88 0-218.453-95.573-218.453-218.453s102.4-225.28 225.28-225.28 225.28 102.4 225.28 225.28-109.227 218.453-232.107 218.453zM641.707 448c0-71.635-58.071-129.707-129.707-129.707s-129.707 58.071-129.707 129.707c0 71.635 58.071 129.707 129.707 129.707s129.707-58.071 129.707-129.707z" />
<glyph unicode="&#x54;" glyph-name="entity-timeline" horiz-adv-x="894" d="M512.849 668.558v13.768c0 28.089-22.851 50.958-50.976 50.958h-14.393c-28.107 0-50.976-22.851-50.976-50.958v-13.768c-33.024-7.706-63.545-21.742-90.329-40.856l-8.564 8.564 3.075 3.075c13.964 13.964 13.964 36.6 0 50.564s-36.6 13.964-50.564 0l-56.733-56.733c-13.964-13.964-13.964-36.6 0-50.564 6.991-6.991 16.128-10.478 25.282-10.478s18.291 3.487 25.282 10.478l3.093 3.093 7.188-7.188c-34.919-43.806-55.946-99.162-55.946-159.417 0-141.359 115.021-256.362 256.38-256.362s256.38 115.004 256.38 256.362c0.018 121.315-84.804 223.016-198.199 249.46zM454.686 234.237c-101.933 0-184.86 82.927-184.86 184.842 0 101.933 82.927 184.86 184.86 184.86s184.86-82.927 184.86-184.86c0-101.915-82.927-184.842-184.86-184.842zM463.090 397.23c-5.167 0-10.335 1.967-14.286 5.918-7.885 7.885-7.885 20.669 0 28.572l88.988 88.988c-22.314 17.916-50.582 28.697-81.336 28.697-71.806 0-130.219-58.414-130.219-130.219 0-71.806 58.414-130.219 130.219-130.219s130.219 58.414 130.219 130.219c0 26.48-7.992 51.101-21.617 71.681l-87.701-87.701c-3.934-3.951-9.101-5.936-14.268-5.936zM446.998-64c-4.631 0-9.262 1.198-13.41 3.594l-420.178 242.595c-8.296 4.774-13.41 13.624-13.41 23.208v485.189c0 9.584 5.114 18.434 13.41 23.226l420.178 242.595c8.314 4.792 18.506 4.792 26.82 0l420.196-242.595c8.296-4.792 13.41-13.642 13.41-23.226v-485.189c0-9.584-5.114-18.434-13.41-23.226l-420.196-242.577c-4.148-2.396-8.779-3.594-13.41-3.594zM53.64 220.898l393.358-227.093 393.376 227.093v454.203l-393.376 227.111-393.358-227.111v-454.203z" />
<glyph unicode="&#x55;" glyph-name="entity-empty" horiz-adv-x="894" d="M446.998-64c-4.631 0-9.262 1.198-13.41 3.594l-420.178 242.595c-8.296 4.774-13.41 13.624-13.41 23.208v485.189c0 9.584 5.114 18.434 13.41 23.226l420.178 242.595c8.314 4.792 18.506 4.792 26.82 0l420.196-242.595c8.296-4.792 13.41-13.642 13.41-23.226v-485.189c0-9.584-5.114-18.434-13.41-23.226l-420.196-242.577c-4.148-2.396-8.779-3.594-13.41-3.594zM53.64 220.898l393.358-227.093 393.376 227.093v454.203l-393.376 227.111-393.358-227.111v-454.203z" />
<glyph unicode="&#x56;" glyph-name="checked" horiz-adv-x="1030" d="M377.601 108.8l-313.6 313.6 96 102.4 217.6-217.6 486.4 480 96-96z" />
<glyph unicode="&#x57;" glyph-name="hierarchy" horiz-adv-x="1122" d="M67.934 898h985.971v-112.306h-985.971v112.306zM506.492 596.203h112.306v-598.203h-112.306v598.203zM856.132 278.431l-293.037 242.809-285.541-242.387-72.663 85.634 357.305 303.285 365.616-302.864z" />
<glyph unicode="&#x58;" glyph-name="trash" d="M640 832v64h-256v-64h-256v-64h768v64zM768 0h-512l-64 704h640z" />
<glyph unicode="&#x59;" glyph-name="hide" horiz-adv-x="1225" d="M842.905 596.474l80.522 81.908-51.372 49.974-101.343-101.343c-47.2 15.267-99.954 24.989-158.27 24.989-273.489 0-416.481-199.915-416.481-233.222 0-20.831 63.86-116.614 186.026-179.087l-81.908-81.908 51.372-52.757 104.111 104.111c45.805-15.267 98.563-23.598 156.874-23.598 273.489 0 416.481 201.3 416.481 233.222 0 20.831-63.86 116.614-186.026 177.695zM426.433 420.172c0 98.563 83.292 180.474 184.635 180.474 37.478 0 72.199-11.107 101.343-29.15l-97.165-97.165c5.558 18.054 8.33 34.704-5.558 34.704-51.372 0-91.628-40.258-91.628-90.234 0-12.498 2.778-23.598 6.937-34.704l-66.639-66.639c-19.433 29.15-31.935 63.86-31.935 102.73zM612.461 239.697c-36.092 0-69.415 9.717-98.563 27.767l66.639 66.639c9.717-4.172 20.831-5.558 31.935-5.558 51.372 0 91.628 40.258 91.628 90.234 0 11.107-16.654 8.33-34.704 4.172l97.165 97.165c19.433-29.15 31.935-62.476 31.935-99.954-1.385-99.954-86.079-180.474-186.026-180.474z" />
<glyph unicode="&#x5f;" glyph-name="loop" horiz-adv-x="1059" d="M649.299 752.741h-319.166v117.134l-207.676-167.235 207.7-157.953v107.702h319.142c119.167 0 216.106-96.939 216.106-216.105v-50.175h100.351v50.175c0 174.485-141.971 316.456-316.456 316.456zM728.803 243.585h-319.141c-119.167 0-216.105 96.989-216.105 216.156v50.175h-100.351v-50.175c0-174.51 141.971-316.481 316.456-316.481h319.166l0.024-117.109 207.651 167.235-207.701 157.953v-107.753z" />
<glyph unicode="&#x61;" glyph-name="delete" d="M837.889 685.379l-88.509 88.509-236.643-236.643-234.451 234.421-88.509-88.509 234.451-234.42-238.114-238.114 88.509-88.509 238.114 238.083 236.643-236.643 88.509 88.509-236.643 236.674z" />
<glyph unicode="&#x62;" glyph-name="rotate" horiz-adv-x="1128" d="M142.582 437.725l251.957 137.233-111.496 50.038c53.018 96.187 163.217 162.667 290.713 162.667 178.912 0 324.476-130.641 324.476-291.21h110.338c-0.027 221.422-195.078 401.547-434.815 401.547-172.32 0-321.111-93.291-391.424-227.848l-114.035 51.169 74.286-283.597zM1059.271 185.52l-74.286 283.597-251.957-137.233 116.296-52.163c-51.031-100.905-164.128-171.382-295.403-171.382-178.913 0-324.476 130.641-324.476 291.21h-110.338c0-221.422 195.051-401.547 434.815-401.547 176.072 0 327.704 97.318 396.004 236.593l109.344-49.073z" />
<glyph unicode="&#x64;" glyph-name="settings" d="M882.789 407.597v84.363l-102.249 33.377-24.108 58.204 46.33 98.036-59.686 59.686-11.175-5.65-84.723-43.028-58.204 24.108-36.574 102.1h-84.384l-3.874-11.937-29.482-90.331-58.183-24.108-98.1 46.33-59.643-59.663 48.701-95.941-24.085-58.161-102.142-36.551v-84.407l11.937-3.874 90.331-29.504 24.108-58.185-46.329-98.058 59.663-59.686 11.175 5.693 84.746 43.028 58.183-24.108 36.574-102.1h84.384l3.894 11.917 29.504 90.331 58.183 24.108 98.058-46.352 59.686 59.686-5.671 11.175-43.028 84.723 24.108 58.204 102.078 36.574zM512 288.692c-87.982 0-159.287 71.326-159.287 159.308 0 87.962 71.303 159.308 159.287 159.308s159.287-71.346 159.287-159.308c0.021-87.982-71.303-159.308-159.287-159.308z" />
<glyph unicode="&#x65;" glyph-name="point-light" horiz-adv-x="994" d="M492.717 896.881l-4.558-0.020c-116.317-1.255-225.14-49.381-306.386-135.473-80.994-85.822-124.871-199.165-123.578-319.17 2.684-245.553 197.872-445.317 435.158-445.317l4.616 0.020c239.74 2.587 432.628 206.543 429.983 454.644-2.588 245.553-197.853 445.317-435.236 445.317zM497.331 54.855l-3.978-0.020c-205.655 0-374.886 174.059-377.203 388.018-1.139 104.903 37.118 203.916 107.761 278.769 70.354 74.564 164.423 116.239 264.864 117.302l3.939 0.020c205.77 0 375.021-174.059 377.28-387.979 2.337-216.179-164.867-393.85-372.665-396.11zM491.229 622.668c-0.020 0-0.020 0 0 0-44.746-0.463-86.557-18.925-117.765-51.988-30.919-32.734-47.662-75.973-47.16-121.686 1.043-93.779 75.896-170.101 166.875-170.101h1.778c91.926 1.005 165.891 78.928 164.867 173.674-0.985 93.799-75.838 170.101-168.594 170.101zM494.319 336.829l-1.159-28.968v28.968c-59.384 0-108.245 50.598-108.939 112.802-0.348 30.629 10.815 59.5 31.382 81.285 20.277 21.495 47.333 33.506 77.345 33.815 59.404 0 108.245-50.578 108.921-112.782 0.696-62.823-47.566-114.462-107.549-115.119z" />
<glyph unicode="&#x66;" glyph-name="add" horiz-adv-x="1031" d="M888.593 537.449h-284.273v281.34h-175.966v-281.34h-286.178v-175.966h286.178v-284.272h175.966v284.272h284.272z" />
<glyph unicode="&#x67;" glyph-name="facebook" d="M1023.971 789.314c0 89.605-80.994 170.686-170.657 170.686h-682.686c-89.663 0-170.628-81.081-170.628-170.686v-682.628c0-89.721 80.994-170.657 170.628-170.657h341.314v386.698h-125.098v170.686h125.098v66.564c0 114.596 86.143 217.991 192.011 217.991h137.986v-170.715h-137.986c-15.128 0-32.671-18.299-32.671-45.792v-68.018h170.657v-170.686h-170.657v-386.727h182.032c89.663 0 170.657 80.965 170.657 170.657v682.628z" />
<glyph unicode="&#x68;" glyph-name="googleplus" horiz-adv-x="671" d="M630.564 898h-243.59c-63.759 0-144.136-9.372-211.532-64.808-50.854-43.837-75.615-103.96-75.615-158.322 0-92.105 70.98-185.515 196.219-185.515 11.856 0 24.735 1.255 37.871 2.381-5.915-14.058-11.83-25.862-11.83-46.117 0-36.463 18.897-58.894 35.438-80.198-53.133-3.533-152.484-9.423-225.794-54.26-69.751-41.431-91.106-101.553-91.106-144.111 0-87.471 82.809-169.051 254.216-169.051 203.337 0 310.959 112.334 310.959 223.335 0 81.401-47.269 121.68-99.275 165.414l-42.685 33.007c-12.879 10.627-30.548 24.684-30.548 50.751 0 26.016 17.668 42.558 33.007 57.895 49.65 38.998 99.352 80.301 99.352 167.744 0 89.672-56.871 137.044-84.039 159.525h73.336l75.615 42.326zM526.654 175.219c0-73.182-60.328-127.492-173.839-127.492-126.545 0-208.126 60.225-208.126 144.034 0 83.962 75.666 112.283 101.733 121.654 49.625 16.593 113.461 18.897 124.087 18.897 11.83 0 17.745 0 27.246-1.152 89.877-63.733 128.901-95.741 128.901-155.941zM432.066 555.572c-18.974-18.82-50.828-33.007-80.429-33.007-101.733 0-147.798 131.153-147.798 210.2 0 30.778 5.992 62.607 25.939 87.393 18.999 23.608 52.082 38.998 82.809 38.998 98.148 0 149.001-132.383 149.001-217.318 0-21.304-2.407-59.098-29.524-86.266z" />
<glyph unicode="&#x69;" glyph-name="entity-script" horiz-adv-x="894" d="M262.723 259.245c33.828 0 36.921 28.482 37.064 37.225v19.542h-55.981c-10.871 0-19.703-8.815-19.703-19.703 0-11.336 2.789-24.71 9.101-37.064h29.519zM603.329 675.536h-189.22c-5.614 0-11.747-0.697-17.987-2.146 41.123-9.369 56.607-47.524 56.607-74.308v-18.148h131.683c2.736 0 5.328-0.554 7.688-1.556h67.996c10.871 0 19.703 8.815 19.703 19.703-0.018 30.717-20.383 76.453-76.471 76.453zM433.026 541.528c-10.871 0-19.703 8.815-19.703 19.703v37.833c-0.143 8.582-3.236 37.064-37.064 37.064s-36.921-28.482-37.064-37.225c-0.036-2.593-0.608-5.042-1.556-7.313v-230.843c1.001-2.36 1.556-4.953 1.556-7.67v-56.768c0-26.998-15.716-65.529-57.537-74.522 5.811-1.252 12.087-1.949 18.917-1.949h189.22c30.735 0 76.471 20.365 76.471 76.471v245.219h-133.239zM446.99-64c-4.631 0-9.262 1.198-13.41 3.594l-420.17 242.59c-8.296 4.792-13.41 13.642-13.41 23.226v485.181c0 9.583 5.114 18.434 13.41 23.226l420.17 242.59c8.314 4.792 18.505 4.792 26.819 0l420.188-242.608c8.296-4.792 13.41-13.642 13.41-23.226v-485.181c0-9.583-5.114-18.434-13.41-23.226l-420.188-242.555c-4.148-2.396-8.779-3.612-13.41-3.612zM53.639 220.893l393.351-227.089 393.369 227.089v454.195l-393.369 227.124-393.351-227.124v-454.195z" />
<glyph unicode="&#x6a;" glyph-name="twitter" horiz-adv-x="1051" d="M906.122 508.923c55.289 4.576 92.843 29.718 107.287 63.811-19.964-12.242-81.888-25.685-116.153-12.814-1.601 7.894-3.431 15.645-5.263 22.481-26.142 95.817-115.324 172.899-208.852 163.49 7.465 3.033 15.188 6.035 22.823 8.524 10.326 3.633 70.762 13.5 61.179 34.895-8.037 18.649-81.744-14.215-95.731-18.505 18.391 6.836 48.738 18.592 51.998 39.814-28.145-3.862-55.717-17.076-76.997-36.582 7.694 8.438 13.472 18.505 14.73 29.317-74.937-47.794-118.727-144.354-154.135-238.055-27.802 27.057-52.399 48.223-74.509 60.007-62.066 33.322-136.346 67.958-252.757 111.233-3.604-38.469 18.992-89.811 84.233-123.847-14.158 1.973-39.985-2.259-60.55-7.179 8.323-44.247 35.782-80.543 110.233-98.105-34.037-2.288-51.57-10.039-67.586-26.714 15.645-30.633 53.457-66.871 121.358-59.407-75.566-32.578-30.804-92.957 30.633-83.918-104.857-108.345-270.261-100.393-365.22-9.697 247.894-337.99 787.043-199.986 867.329 125.591 60.236-0.572 95.731 20.935 117.583 44.391-34.694-5.892-85.005 0.229-111.634 11.269z" />
<glyph unicode="&#x6c;" glyph-name="next-key" horiz-adv-x="1074" d="M430.155 795.615v-695.228l471.129 344.756zM172.413 795.615h125.651v-695.228h-125.651v695.228z" />
<glyph unicode="&#x6d;" glyph-name="play" horiz-adv-x="1033" d="M187.748 773.889v-651.776l657.35 325.889z" />
<glyph unicode="&#x6e;" glyph-name="fold-left" horiz-adv-x="1031" d="M968.222-2h-459.475v254.303h105.433v-148.871h248.61v689.135h-248.61v-145.049h-105.433v250.482h459.475zM129.69 500.703h544.982v-105.433h-544.982v105.433zM339.633 121.067l-277.208 326.525 276.787 334.037 81.183-67.24-220.354-265.981 219.932-259.101z" />
<glyph unicode="&#x6f;" glyph-name="picker" d="M846.828 720.775l-62.033 62.033c-17.037 17.077-44.957 17.077-62.011 0l-84.922-84.882-32.549 32.57c-17.056 17.077-44.976 17.077-62.033 0l-31.028-31.006 248.132-248.132 31.027 31.006c17.056 17.077 17.056 44.976 0 62.033l-29.463 29.444 84.903 84.882c17.037 17.077 17.037 44.977-0.020 62.052zM226.498 348.535c-16.535-16.434-25.795-38.764-25.795-62.032 0-23.229 9.34-45.597 25.715-62.033l-62.033-62.052 62.033-62.033 62.011 62.074 0.081-0.061c34.293-34.254 89.812-34.254 124.085 0.021l279.158 279.158-186.098 186.139-279.158-279.177zM257.525 255.478l-31.106 31.028 279.237 279.198 31.027-31.067-279.158-279.158z" />
<glyph unicode="&#x70;" glyph-name="lock" horiz-adv-x="951" d="M704.455 532.375v84.375c0 123.75-101.25 225.001-225.001 225.001s-225.001-101.25-225.001-225.001v-84.375h-84.375v-478.125h618.75v478.125h-84.375zM591.955 532.375h-225.001v84.375c0 67.5 45.001 123.75 112.5 123.75s112.5-56.25 112.5-123.75v-84.375z" />
<glyph unicode="&#x71;" glyph-name="directional" horiz-adv-x="1027" d="M925.301 704.413c-12.784 34.806-38.424 70.484-72.158 100.452-45.116 40.043-98.197 63.955-141.967 63.955-18.803 0-35.115-4.62-48.571-12.984-4.782-1.128-9.401-3.055-13.129-6.801l-552.996-553.014c-10.657-10.657-10.657-27.914 0-38.569 5.328-5.328 12.311-7.982 19.294-7.982s13.966 2.655 19.294 7.982l497.114 497.132c1.146-4.092 2.364-8.219 3.909-12.42 9.728-26.44 26.895-53.373 49.353-77.94-0.563-0.473-1.255-0.654-1.782-1.182l-436.814-436.831c-10.657-10.657-10.657-27.914 0-38.569 5.328-5.328 12.311-7.982 19.294-7.982s13.966 2.655 19.295 7.982l436.814 436.814c1.090 1.090 1.582 2.472 2.454 3.692 30.405-23.459 63.247-39.623 93.906-46.535l-510.007-509.988c-10.657-10.657-10.657-27.914 0-38.569 5.328-5.328 12.311-7.982 19.295-7.982s13.966 2.655 19.294 7.982l560.742 560.76c2.709 2.708 4.691 5.837 6.019 9.165 0.345 0.382 0.8 0.637 1.146 1.019 21.495 24.222 25.113 59.864 10.202 100.415zM687.319 760.985c-7.418 20.167-7.492 37.132-0.182 45.352 5.801 6.547 16.275 7.928 24.039 7.928 30.332 0 70.848-19.239 105.727-50.209 26.75-23.75 47.589-52.335 57.209-78.467 7.418-20.167 7.492-37.133 0.182-45.353-5.801-6.546-16.275-7.928-24.040-7.928-30.351 0-70.848 19.239-105.727 50.209-26.785 23.75-47.625 52.354-57.209 78.467z" />
<glyph unicode="&#x72;" glyph-name="entity-mesh" horiz-adv-x="894" d="M695.552 581.757l-238.961 119.471c-6.043 3.022-13.142 3.022-19.185 0l-238.961-119.471c-7.259-3.63-11.854-11.067-11.854-19.185v-238.961c0-8.117 4.595-15.555 11.854-19.185l238.961-119.489c3.022-1.502 6.311-2.271 9.601-2.271s6.58 0.751 9.601 2.271l238.961 119.489c7.259 3.63 11.854 11.067 11.854 19.185v238.961c0 8.117-4.595 15.555-11.872 19.185zM229.485 533.84l196.050-98.034v-196.979l-196.050 98.034v196.979zM468.463 238.845v196.979l196.050 98.034v-196.979l-196.050-98.034zM446.99-64c-4.631 0-9.262 1.198-13.41 3.594l-420.17 242.59c-8.296 4.792-13.41 13.642-13.41 23.226v485.181c0 9.583 5.114 18.434 13.41 23.226l420.17 242.59c8.314 4.81 18.505 4.81 26.819 0l420.188-242.59c8.296-4.792 13.41-13.642 13.41-23.226v-485.181c0-9.583-5.114-18.434-13.41-23.226l-420.188-242.59c-4.148-2.396-8.779-3.594-13.41-3.594zM53.639 220.893l393.351-227.107 393.369 227.107v454.213l-393.369 227.107-393.351-227.107v-454.213z" />
<glyph unicode="&#x73;" glyph-name="edit" horiz-adv-x="1015" d="M719.58 841.75l-528.75-528.75-73.125-225c-5.625-11.25 0-16.875 5.625-28.125 5.625-5.625 16.875-5.625 28.125-5.625l225 73.125 528.75 528.75-185.625 185.625zM263.955 161.125l-39.375 39.375 28.125 78.75 11.25 11.25 90-90-11.25-11.25-78.75-28.125z" />
<glyph unicode="&#x74;" glyph-name="entity-sound" horiz-adv-x="894" d="M471.074 671.012c-5.721 2.628-12.426 1.699-17.2-2.396l-141.356-121.152h-98.248c-8.886 0-16.092-7.205-16.092-16.092v-166.709c0-8.886 7.205-16.092 16.092-16.092h98.248l141.356-121.152c2.968-2.557 6.705-3.88 10.477-3.88 2.271 0 4.559 0.483 6.723 1.466 5.704 2.628 9.369 8.332 9.369 14.626v416.773c0 6.276-3.647 11.979-9.369 14.608zM562.814 566.327c-8.368 8.386-21.956 8.386-30.342 0-8.386-8.368-8.386-21.956 0-30.342 48.507-48.507 48.507-127.446 0-175.953-8.386-8.368-8.386-21.956 0-30.342 4.184-4.184 9.673-6.294 15.162-6.294s10.978 2.092 15.162 6.294c65.261 65.225 65.261 171.394 0.018 236.636zM611.75 651.237c-8.368 8.386-21.974 8.386-30.342 0-8.386-8.368-8.386-21.956 0-30.342 95.334-95.352 95.334-250.475 0-345.809-8.386-8.368-8.386-21.956 0-30.342 4.184-4.184 9.673-6.294 15.162-6.294s10.978 2.092 15.162 6.294c112.087 112.087 112.087 294.423 0.018 406.493zM446.99-64c-4.631 0-9.262 1.198-13.41 3.594l-420.17 242.59c-8.296 4.792-13.41 13.66-13.41 23.226v485.181c0 9.583 5.114 18.434 13.41 23.226l420.17 242.59c8.314 4.81 18.505 4.81 26.819 0l420.188-242.59c8.296-4.792 13.41-13.642 13.41-23.226v-485.181c0-9.583-5.114-18.434-13.41-23.226l-420.188-242.59c-4.148-2.396-8.779-3.594-13.41-3.594zM53.639 220.893l393.351-227.107 393.369 227.124v454.195l-393.369 227.107-393.351-227.107v-454.213z" />
<glyph unicode="&#x75;" glyph-name="entity-light" horiz-adv-x="894" d="M446.99-64c-4.631 0-9.262 1.198-13.41 3.594l-420.17 242.608c-8.296 4.774-13.41 13.624-13.41 23.208v485.181c0 9.583 5.114 18.434 13.41 23.226l420.17 242.572c8.314 4.792 18.505 4.792 26.819 0l420.188-242.572c8.296-4.792 13.41-13.642 13.41-23.226v-485.181c0-9.583-5.114-18.434-13.41-23.226l-420.188-242.59c-4.148-2.396-8.779-3.594-13.41-3.594zM53.639 220.911l393.351-227.124 393.369 227.107v454.213l-393.369 227.089-393.351-227.089v-454.195zM441.805 722.899c-98.177 0-178.063-79.886-178.063-178.063 0-62.185 34.15-96.282 59.092-121.188 10.352-10.334 19.274-19.238 23.458-27.57 12.283-24.549 18.72-56.16 18.791-56.482 1.538-7.688 8.296-13.213 16.127-13.213h38.656v114.912l-50.832 33.882c-6.776 4.524-10.495 12.426-9.655 20.526 0.84 8.117 6.115 15.072 13.678 18.112l70.124 28.035-16.878 16.878c-8.564 8.564-8.564 22.457 0 31.021s22.457 8.564 31.021 0l40.39-40.408c5.221-5.221 7.456-12.712 5.972-19.918-1.484-7.223-6.49-13.213-13.338-15.966l-62.275-24.906 25.89-17.254c6.115-4.077 9.762-10.924 9.762-18.255v-126.641h38.691c8.296 0 15.305 6.222 16.324 14.447 0.036 0.25 3.2 24.495 18.595 55.248 2.7 5.418 10.764 13.41 19.292 21.867 25.192 24.978 63.24 62.739 63.24 126.909 0 98.141-79.868 178.027-178.063 178.027zM502.417 293.216h-121.206c-12.122 0-21.938-9.816-21.938-21.938s9.816-21.938 21.938-21.938h121.206c12.122 0 21.938 9.816 21.938 21.938 0 12.104-9.834 21.938-21.938 21.938zM502.417 216.996h-121.206c-12.122 0-21.938-9.816-21.938-21.938s9.816-21.938 21.938-21.938h121.206c12.122 0 21.938 9.816 21.938 21.938 0 12.104-9.834 21.938-21.938 21.938z" />
<glyph unicode="&#x76;" glyph-name="position" horiz-adv-x="1038" d="M947.2 198.4l-230.4 179.2v-128h-403.2v403.2h128l-185.6 230.4-179.2-230.4h128v-512h512v-128z" />
<glyph unicode="&#x77;" glyph-name="spot-light" horiz-adv-x="927" d="M851.033 894.921c-6.441 2.55-13.222 2.437-19.342 0.397-5.572 0.378-11.295-0.85-16.451-3.948l-707.644-424.341c-2.625-1.568-4.778-3.589-6.686-5.761-5.723-4.231-11.125-8.858-15.96-14.128-66.826-73.097-20.418-220.689 105.66-335.962 78.235-71.529 169.654-114.254 244.62-114.254 41.723 0 76.119 13.506 99.484 39.023 11.71 12.806 19.738 27.992 24.686 44.802 0.698 1.208 1.586 2.267 2.116 3.626l305.478 773.79c5.742 14.562-1.398 31.014-15.96 36.756zM429.073 371.91c-60.292 55.153-128.383 92.891-190.77 107.436l547.907 328.539-238.047-602.965c-21.249 55.663-61.858 114.632-119.089 166.989zM435.23 53.568c-60.253 0-139.338 38.097-206.391 99.408-107.87 98.633-140.377 214.040-102.052 255.934 15.546 16.999 39.93 20.588 57.665 20.588 60.253 0 139.338-38.097 206.391-99.408 107.852-98.633 140.358-214.022 102.052-255.916-15.583-17.018-39.967-20.607-57.665-20.607z" />
<glyph unicode="&#x78;" glyph-name="duplicate" horiz-adv-x="1047" d="M740.733 26.125h-648.583v648.583h648.583v-648.583zM190.643 124.619h451.597v451.597h-451.597v-451.597zM954.638 211.861h-153.774v98.494h55.28v461.026h-461.026v-39.62h-98.494v138.114h658.014z" />
<glyph unicode="&#x79;" glyph-name="entity-camera" horiz-adv-x="894" d="M692.959 417.891c-4.559 2.628-10.191 2.61-14.751-0.054l-67.782-39.657v62.954c0 8.117-6.58 14.715-14.715 14.715h-341.554c-8.117 0-14.715-6.598-14.715-14.715v-196.139c0-8.117 6.58-14.715 14.715-14.715h341.572c8.117 0 14.715 6.598 14.715 14.715v46.576l67.782-39.657c2.289-1.341 4.863-2.003 7.42-2.003 2.521 0 5.060 0.644 7.313 1.949 4.577 2.61 7.402 7.492 7.402 12.748v140.516c0 5.274-2.825 10.156-7.402 12.766zM317.22 491.519c56.41 0 102.307 45.897 102.307 102.307s-45.897 102.307-102.307 102.307c-56.41 0-102.307-45.897-102.307-102.307s45.897-102.307 102.307-102.307zM317.22 656.887c34.776 0 63.079-28.286 63.079-63.079s-28.303-63.079-63.079-63.079c-34.776 0-63.079 28.286-63.079 63.079s28.303 63.079 63.079 63.079zM544.112 491.519c56.41 0 102.307 45.897 102.307 102.307s-45.897 102.307-102.307 102.307-102.307-45.897-102.307-102.307 45.897-102.307 102.307-102.307zM544.112 656.887c34.776 0 63.079-28.286 63.079-63.079s-28.303-63.079-63.079-63.079-63.079 28.286-63.079 63.079 28.303 63.079 63.079 63.079zM446.99-64c-4.631 0-9.262 1.198-13.41 3.594l-420.17 242.59c-8.296 4.792-13.41 13.642-13.41 23.226v485.181c0 9.583 5.114 18.434 13.41 23.226l420.17 242.59c8.314 4.81 18.505 4.81 26.819 0l420.188-242.59c8.296-4.792 13.41-13.642 13.41-23.226v-485.181c0-9.583-5.114-18.434-13.41-23.226l-420.188-242.572c-4.148-2.396-8.779-3.612-13.41-3.612zM53.639 220.893l393.351-227.089 393.369 227.089v454.213l-393.369 227.107-393.351-227.107v-454.213z" />
<glyph unicode="&#x7a;" glyph-name="undo" horiz-adv-x="1151" d="M686.513 719.979h-336.561v123.529l-219.013-176.363 219.038-166.575-0.026 113.58h336.561c125.671 0 227.929-102.257 227.929-227.929s-102.257-227.929-227.929-227.929h-271.742v-105.829h271.742c184.036 0 333.757 149.721 333.757 333.757s-149.721 333.757-333.757 333.757z" />
<glyph unicode="&#xa7;" glyph-name="post-fx" d="M742.638 567.336c0 6.563-2.612 12.879-7.258 17.543l-86.518 86.502c-9.688 9.688-25.378 9.688-35.066 0l-544.537-544.537c-4.646-4.646-7.258-10.961-7.258-17.542s2.612-12.879 7.258-17.543l86.518-86.502c4.845-4.845 11.193-7.258 17.543-7.258s12.698 2.413 17.542 7.258l544.537 544.537c4.629 4.646 7.241 10.961 7.241 17.543zM772.464 374.030c-6.977 16.864-26.337 24.898-43.201 17.889-16.881-6.994-24.883-26.337-17.905-43.201l23.18-55.965c5.274-12.731 17.574-20.419 30.57-20.419 4.216 0 8.498 0.827 12.632 2.529 16.881 6.994 24.883 26.337 17.905 43.201l-23.18 55.965zM525.838 796.271c5.274-12.747 17.574-20.435 30.57-20.435 4.216 0 8.498 0.827 12.632 2.529 16.881 6.977 24.883 26.32 17.905 43.185l-23.163 55.965c-6.977 16.881-26.354 24.915-43.201 17.905-16.881-6.977-24.883-26.32-17.905-43.185l23.163-55.965zM941.581 499.881l-55.948 23.18c-16.881 6.977-36.207-1.025-43.201-17.889-6.994-16.881 1.025-36.207 17.889-43.201l55.948-23.18c4.133-1.719 8.432-2.529 12.648-2.529 12.979 0 25.296 7.688 30.57 20.419 6.977 16.864-1.025 36.207-17.905 43.201zM356.72 670.42l55.948-23.18c4.133-1.719 8.432-2.529 12.648-2.529 12.979 0 25.279 7.688 30.57 20.419 6.994 16.881-1.025 36.207-17.889 43.201l-55.948 23.18c-16.864 6.977-36.207-1.025-43.201-17.889-7.010-16.864 0.992-36.207 17.873-43.201zM872.936 644.827c4.216 0 8.498 0.827 12.632 2.529l55.948 23.163c16.881 6.994 24.883 26.32 17.905 43.201-6.977 16.864-26.337 24.883-43.201 17.889l-55.948-23.163c-16.881-6.994-24.883-26.32-17.905-43.201 5.291-12.714 17.591-20.419 30.57-20.419zM729.131 778.432c4.133-1.719 8.432-2.529 12.648-2.529 12.979 0 25.296 7.704 30.57 20.419l23.18 55.948c6.994 16.881-1.025 36.207-17.889 43.201-16.913 6.994-36.224-1.025-43.201-17.889l-23.18-55.948c-7.011-16.864 1.008-36.207 17.872-43.201z" />
<glyph unicode="&#xa8;" glyph-name="sort" horiz-adv-x="652" d="M328.126 843.508l-253.952-341.38h503.763zM323.959 52.492l253.975 341.38h-503.763z" />
<glyph unicode="&#xb4;" glyph-name="environment" horiz-adv-x="1138" d="M757.756 833.819c-91.483 0-165.895-74.412-165.895-165.878s74.412-165.877 165.895-165.877c91.465 0 165.878 74.428 165.878 165.877 0.019 91.466-74.394 165.878-165.878 165.878zM694.701 196.336v0zM990.123 108.128l-158.028 218.090c-10.041 13.868-33.201 13.868-43.259 0l-49.542-68.377 103.428-155.144c8.028-12.034 11.891-25.973 11.803-39.93h116.157c0.125 0 0.232 0.019 0.356 0 14.758 0 26.703 11.962 26.703 26.703-0.019 7.263-2.918 13.85-7.619 18.656zM756.705 106.829l-282.727 424.11c-9.915 14.846-34.518 14.846-44.433 0l-284.829-427.243c-5.466-8.19-5.963-18.727-1.335-27.414 4.647-8.67 13.706-14.098 23.551-14.098h569.659c0.107 0.019 0.232 0.019 0.356 0 14.758 0 26.703 11.962 26.703 26.703 0 6.908-2.634 13.209-6.941 17.944z" />
<glyph unicode="&#x20ac;" glyph-name="svg" horiz-adv-x="1012" d="M618.321 760.61c-5.679 5.767-14.384 7.355-21.717 4.004l-356.87-162.354c-7.203-3.286-11.685-10.663-11.294-18.562 0.131-2.372 9.183-239.691-222.913-474.855-7.377-7.486-7.42-19.476-0.065-27.005 4.374-4.483 16.625-16.843 28.31-28.615 4.004-4.026 7.834-7.877 11.337-11.424l309.28 309.302c-1.958 6.92-3.351 14.079-3.351 21.652 0 43.956 35.622 79.578 79.578 79.578s79.578-35.622 79.578-79.578c0-43.934-35.622-79.578-79.578-79.578-7.573 0-14.732 1.393-21.673 3.373l-309.955-310.020 1.284-1.327c14.841-15.232 34.577-35.491 41.171-42.846 3.678-4.047 8.878-6.376 14.34-6.376 0.152 0 0.305 0 0.457 0 5.614 0.131 10.88 2.72 14.449 7.050 169.6 206.484 385.594 222.522 447.742 222.522 12.251 0 19.28-0.588 19.758-0.631 8.030-0.653 16.103 3.873 19.432 11.489l159.438 365.183c3.155 7.224 1.61 15.646-3.939 21.26l-194.799 197.758zM1001.086 710.735l-237.906 237.928c-9.4 9.422-23.001 13.404-35.97 10.314-12.969-2.981-23.479-12.447-27.788-25.024l-33.75-98.074c-4.809-13.948-1.24-29.42 9.183-39.843l173.452-173.43c7.355-7.355 17.212-11.294 27.288-11.294 4.178 0 8.4 0.675 12.49 2.067l98.226 33.598c12.599 4.309 22.087 14.819 25.090 27.788s-0.892 26.569-10.314 35.97z" />
<glyph unicode="&#xe600;" glyph-name="triangle" horiz-adv-x="1184" d="M585.6 960l-585.6-1024h1171.2l-585.6 1024z" />
<glyph unicode="&#xe601;" glyph-name="rounded-rect" d="M700.8 960h-384c-176 0-320-144-320-320v-384c0-176 144-320 320-320h384c176 0 320 144 320 320v384c0 176-144 320-320 320 0 0 0 0 0 0z" />
<glyph unicode="&#xe602;" glyph-name="rectangle" d="M1020.8 960h-1024v-1024h1024v1024z" />
<glyph unicode="&#xe603;" glyph-name="circle" d="M508.8 960c-281.6 0-512-230.4-512-512s230.4-512 512-512 512 230.4 512 512-227.2 512-512 512v0z" />
<glyph unicode="&#xe604;" glyph-name="toggle-channel" horiz-adv-x="896" d="M537.6 793.6v51.2c0 25.6-25.6 51.2-51.2 51.2h-51.2c-25.6 0-51.2-25.6-51.2-51.2v-51.2c-64-12.8-121.6-38.4-166.4-76.8l-44.8 38.4 19.2 19.2c19.2 19.2 19.2 38.4 0 57.6-12.8 12.8-38.4 12.8-51.2 0l-96-96c-12.8-12.8-12.8-38.4 0-51.2 6.4-6.4 19.2-12.8 25.6-12.8s19.2 6.4 25.6 12.8l25.6 19.2 38.4-38.4c-64-70.4-96-160-96-262.4 0-224 179.2-403.2 403.2-403.2s403.2 179.2 403.2 403.2c-6.4 192-147.2 358.4-332.8 390.4zM460.8 76.8c-179.2 0-326.4 147.2-326.4 326.4s147.2 326.4 326.4 326.4c179.2 0 326.4-147.2 326.4-326.4s-147.2-326.4-326.4-326.4zM576 569.6l-140.8-147.2c-19.2-12.8-19.2-38.4 0-51.2 6.4-12.8 12.8-12.8 25.6-12.8s19.2 6.4 25.6 12.8l147.2 140.8c12.8 12.8 12.8 38.4 0 51.2s-38.4 19.2-57.6 6.4z" />
<glyph unicode="&#xe605;" glyph-name="torus" d="M512 700.617c241.339 0 444.335-115.031 444.335-252.617s-202.996-252.617-444.335-252.617c-241.339 0-444.335 117.286-444.335 252.617 0 137.586 202.996 252.617 444.335 252.617zM512 768.282c-281.938 0-512-142.097-512-320.282 0-175.93 230.062-320.282 512-320.282s512 142.097 512 320.282c0 178.185-230.062 320.282-512 320.282v0zM512 558.52c164.652 0 248.106-56.388 252.617-74.432-4.511-18.044-87.965-74.432-252.617-74.432s-248.106 56.388-252.617 74.432c4.511 18.044 87.965 74.432 252.617 74.432zM512 626.185c-175.93 0-320.282-63.154-320.282-142.097s142.097-142.097 320.282-142.097c175.93 0 320.282 63.154 320.282 142.097s-144.352 142.097-320.282 142.097v0z" />
<glyph unicode="&#xe606;" glyph-name="sphere" d="M1024 448c0 281.938-230.062 512-512 512s-512-230.062-512-512c0-279.683 225.551-507.489 505.233-512v0h11.278c279.683 4.511 507.489 232.317 507.489 512zM620.264 19.454c-33.833-9.022-67.665-13.533-103.753-13.533v130.819c74.432 0 146.608 6.767 207.507 15.789-27.066-58.643-63.154-103.753-103.753-133.075zM297.727 150.273c60.899-9.022 133.075-15.789 207.507-15.789v-130.819c-36.088 0-69.921 4.511-103.753 13.533-40.599 31.577-76.687 76.687-103.753 133.075zM67.665 443.489h155.63c0-103.753 20.3-198.485 56.388-277.427-54.132 9.022-101.498 22.555-137.586 38.344-45.11 67.665-72.176 151.119-74.432 239.084zM142.097 693.85c36.088 15.789 83.454 27.066 137.586 38.344-33.833-76.687-54.132-173.674-56.388-277.427h-155.63c2.256 87.965 29.322 169.163 74.432 239.084zM401.48 878.802c33.833 9.022 67.665 13.533 103.753 13.533v-130.819c-74.432 0-146.608-6.767-207.507-15.789 27.066 56.388 63.154 101.498 103.753 133.075zM724.018 745.727c-60.899 9.022-133.075 15.789-207.507 15.789v130.819c36.088 0 69.921-4.511 103.753-13.533 40.599-31.577 76.687-76.687 103.753-133.075zM954.079 454.767h-155.63c0 103.753-20.3 198.485-56.388 277.427 54.132-9.022 101.498-22.555 137.586-38.344 47.366-69.921 74.432-151.119 74.432-239.084zM787.172 454.767h-270.661v295.471c76.687 0 148.863-6.767 214.273-15.789 33.833-78.943 56.388-175.93 56.388-279.683zM505.233 750.238v-295.471h-270.661c0 103.753 22.555 200.74 56.388 279.683 65.41 9.022 137.586 15.789 214.273 15.789zM234.573 443.489h270.661v-295.471c-76.687 0-148.863 6.767-214.273 15.789-33.833 76.687-54.132 173.674-56.388 279.683zM516.511 148.018v295.471h270.661c0-103.753-22.555-200.74-56.388-279.683-63.154-9.022-137.586-15.789-214.273-15.789zM798.449 443.489h155.63c0-87.965-27.066-171.419-74.432-239.084-36.088-15.789-83.454-27.066-137.586-38.344 36.088 78.943 56.388 173.674 56.388 277.427zM868.37 709.639c-36.088 13.533-81.198 24.811-130.819 33.833-24.811 51.877-54.132 94.731-90.22 126.308 90.22-29.322 166.907-85.709 221.040-160.141zM374.414 869.78c-36.088-31.577-65.41-74.432-90.22-126.308-51.877-9.022-94.731-20.3-130.819-33.833 54.132 74.432 133.075 130.819 221.040 160.141zM153.374 186.361c36.088-13.533 81.198-24.811 130.819-33.833 24.811-51.877 54.132-94.731 90.22-126.308-87.965 29.322-166.907 85.709-221.040 160.141zM647.33 26.22c36.088 31.577 65.41 74.432 90.22 126.308 51.877 9.022 94.731 20.3 130.819 33.833-54.132-74.432-130.819-130.819-221.040-160.141z" />
<glyph unicode="&#xe607;" glyph-name="quad" d="M730.784 572.053l164.652-248.106h-769.128l164.652 248.106h439.824zM766.872 639.718h-512l-254.872-383.436h1024l-257.128 383.436z" />
<glyph unicode="&#xe608;" glyph-name="disk" d="M512 637.463c254.872 0 444.335-99.242 444.335-187.207s-189.463-187.207-444.335-187.207c-254.872-2.256-444.335 96.987-444.335 184.952 0 90.22 189.463 189.463 444.335 189.463zM512 705.128c-281.938 0-512-115.031-512-257.128 0-139.841 230.062-254.872 512-254.872s512 115.031 512 254.872c0 142.097-230.062 257.128-512 257.128v0z" />
<glyph unicode="&#xe609;" glyph-name="cylinder" d="M285.885 150.273l4.511-22.555c20.3 4.511 42.855 9.022 65.41 11.278l-2.256 22.555c-22.555-2.256-45.11-6.767-67.665-11.278zM421.216 168.317l2.256-22.555c22.555 2.256 45.11 2.256 67.665 2.256v22.555c-22.555 2.256-47.366 0-69.921-2.256zM558.802 148.018c22.555 0 45.11-2.256 67.665-4.511l2.256 22.555c-22.555 2.256-45.11 4.511-67.665 4.511l-2.256-22.555zM691.877 136.74c22.555-4.511 45.11-9.022 65.41-13.533l6.767 22.555c-20.3 4.511-42.855 9.022-67.665 13.533l-4.511-22.555zM894.872 831.436c0 69.921-171.419 128.564-383.436 128.564s-383.436-56.388-383.436-128.564c0 0 0 0 0 0v-766.872c0-69.921 171.419-128.564 383.436-128.564s383.436 56.388 383.436 128.564v766.872c0 0 0 0 0 0zM511.436 892.335c166.907 0 272.916-36.088 306.749-60.899-33.833-22.555-139.841-60.899-306.749-60.899s-272.916 36.088-306.749 60.899c33.833 24.811 139.841 60.899 306.749 60.899zM511.436 5.921c-184.952 0-295.471 45.11-315.771 67.665v24.811c9.022 4.511 20.3 9.022 31.577 13.533l-6.767 20.3c-9.022-2.256-18.044-6.767-24.811-11.278v638.308c69.921-33.833 184.952-56.388 315.771-56.388s245.85 22.555 315.771 56.388v-640.564l-9.022-18.044c4.511-2.256 6.767-4.511 9.022-4.511v-24.811c-20.3-20.3-130.819-65.41-315.771-65.41z" />
<glyph unicode="&#xe60a;" glyph-name="arrow-up" d="M512 665.6l-320-435.2h640z" />
<glyph unicode="&#xe60b;" glyph-name="cone" d="M816.493 125.463c24.811-4.511 45.11-9.022 65.41-13.533l6.767 22.555c-20.3 4.511-42.855 11.278-67.665 15.789l-4.511-24.811zM142.097 134.485l6.767-22.555c20.3 4.511 40.599 9.022 65.41 13.533l-4.511 22.555c-24.811-2.256-47.366-9.022-67.665-13.533zM705.974 141.251c22.555-2.256 45.11-4.511 67.665-6.767l2.256 22.555c-20.3 2.256-45.11 6.767-67.665 9.022l-2.256-24.811zM254.872 157.040l2.256-22.555c20.3 2.256 42.855 4.511 67.665 6.767l-2.256 22.555c-22.555-2.256-47.366-4.511-67.665-6.767zM593.198 148.018c22.555 0 45.11-2.256 67.665-4.511l2.256 22.555c-22.555 2.256-45.11 2.256-67.665 4.511l-2.256-22.555zM367.648 168.317l2.256-22.555c22.555 2.256 45.11 2.256 67.665 2.256v22.555c-24.811 0-47.366-2.256-69.921-2.256zM480.423 150.273c22.555 0 45.11 0 67.665 0v22.555c-22.555 0-45.11 0-67.665 0v-22.555zM1017.233 84.863v0 0c0 0 0 0 0 0l-505.233 875.137-505.233-875.137c-4.511-6.767-6.767-13.533-6.767-20.3 0-69.921 230.062-128.564 512-128.564s512 56.388 512 128.564c0 6.767-2.256 13.533-6.767 20.3zM512 3.665c-234.573 0-385.692 40.599-435.313 67.665l11.278 20.3c4.511 2.256 11.278 4.511 18.044 9.022l-4.511 13.533 410.502 710.485 415.013-719.507-4.511-9.022c4.511-2.256 9.022-4.511 11.278-6.767l11.278-20.3c-47.366-24.811-198.485-65.41-433.057-65.41z" />
<glyph unicode="&#xe60c;" glyph-name="snapshot" horiz-adv-x="1088" d="M578.391 894.734c-240.809 0-438.857-193.547-443.358-434.356h-132.782l200.299-222.804 177.793 222.804h-132.782c6.752 180.044 153.037 321.829 333.081 321.829 184.545 0 333.081-148.536 333.081-333.081s-148.536-333.081-333.081-333.081c-74.268 0-141.785 24.756-198.048 65.266l-76.519-81.020c74.268-58.514 171.042-94.523 272.316-94.523 245.31 0 443.358 200.299 443.358 445.609s-198.048 443.358-443.358 443.358zM659.411 237.574l-159.789 159.789v274.567h90.022v-236.308l132.782-132.782z" />
<glyph unicode="&#xe60d;" glyph-name="import" horiz-adv-x="1122" d="M994.358 52.492h-866.576v98.707h866.576v-98.707zM608.907 317.744h-98.707v525.764h98.707v-525.764zM301.607 597.035l257.552-213.406 250.964 213.036 63.863-75.264-314.037-266.559-321.342 266.189z" />
<glyph unicode="&#xe60e;" glyph-name="screenshot" d="M510.875 568.404c-74.268 0-135.033-58.514-135.033-130.532s60.765-130.532 135.033-130.532c74.268 0 135.033 58.514 135.033 130.532s-60.765 130.532-135.033 130.532zM868.712 698.936h-108.026c-15.754 0-31.508 11.253-36.009 24.756l-27.007 83.27c-4.501 13.503-20.255 24.756-36.009 24.756h-301.574c-15.754 0-31.508-11.253-36.009-24.756l-27.007-81.020c-4.501-13.503-20.255-24.756-36.009-24.756h-105.776c-49.512 0-90.022-40.51-90.022-87.771v-396.097c0-47.262 40.51-87.771 90.022-87.771h713.424c49.512 0 90.022 40.51 90.022 87.771v393.846c0 49.512-40.51 87.771-90.022 87.771zM510.875 217.319c-123.78 0-222.804 99.024-222.804 218.303 0 121.53 99.024 218.303 222.804 218.303s222.804-99.024 222.804-218.303c0-119.279-99.024-218.303-222.804-218.303z" />
<glyph unicode="&#xe60f;" glyph-name="keyframe-add" d="M522.196 941.825l-495.281-495.281 495.281-495.281 495.281 495.281-495.281 495.281zM664.955 388.274h-87.402v-87.402c0-32.047-26.22-58.269-58.269-58.269s-58.269 26.22-58.269 58.269v87.402h-87.402c-32.047 0-58.269 26.22-58.269 58.269s26.22 58.269 58.269 58.269h87.402v87.402c0 32.047 26.22 58.269 58.269 58.269s58.269-26.22 58.269-58.269v-87.402h87.402c32.047 0 58.269-26.22 58.269-58.269s-23.307-58.269-58.269-58.269z" />
<glyph unicode="&#xe610;" glyph-name="keyframe-remove" d="M521.559 910.961l-464.326-464.326 464.326-464.326 464.326 464.326-464.326 464.326zM655.395 392.007h-270.402c-30.044 0-54.627 24.581-54.627 54.627s24.581 54.627 54.627 54.627h270.402c30.044 0 54.627-24.581 54.627-54.627s-21.85-54.627-54.627-54.627z" />
<glyph unicode="&#xe611;" glyph-name="keyframe" d="M511.487 894.967l447.173-447.173-447.173-447.173-447.173 447.173 447.173 447.173z" />
<glyph unicode="&#xe612;" glyph-name="keyframe-outline" d="M510.875 734.945l288.070-288.070-288.070-285.82-285.82 288.070 285.82 285.82zM510.875 894.734l-445.609-445.609 445.609-445.609 445.609 445.609-445.609 445.609z" />
<glyph unicode="&#xe613;" glyph-name="size" d="M793.6 601.6c-6.4 12.8-19.2 25.6-32 25.6h-128c-12.8 0-19.2 12.8-12.8 25.6 0 0 25.6 38.4 25.6 76.8 0 76.8-64 140.8-140.8 140.8s-140.8-64-140.8-140.8c0-38.4 25.6-76.8 25.6-76.8 12.8-12.8 6.4-25.6-6.4-25.6h-128c-12.8 0-32-12.8-32-25.6l-147.2-544c-6.4-12.8 6.4-25.6 19.2-25.6h825.6c12.8 0 25.6 12.8 19.2 25.6l-147.2 544zM512 806.4c44.8 0 83.2-38.4 83.2-83.2s-38.4-83.2-83.2-83.2-83.2 38.4-83.2 83.2 32 83.2 83.2 83.2z" />
<glyph unicode="&#xe614;" glyph-name="bright" d="M505.6 121.6c-179.2 0-326.4 147.2-326.4 326.4s147.2 326.4 326.4 326.4 326.4-147.2 326.4-326.4c0-179.2-147.2-326.4-326.4-326.4zM505.6 678.4c-128 0-230.4-102.4-230.4-230.4s102.4-230.4 230.4-230.4 230.4 102.4 230.4 230.4c0 128-102.4 230.4-230.4 230.4zM505.6 800c-25.6 0-51.2 19.2-51.2 51.2v64c0 25.6 25.6 44.8 51.2 44.8s51.2-19.2 51.2-51.2v-64c-6.4-19.2-25.6-44.8-51.2-44.8zM793.6 691.2c-12.8 0-25.6 6.4-32 12.8-19.2 19.2-19.2 51.2 0 70.4l44.8 44.8c19.2 19.2 51.2 19.2 70.4 0s19.2-51.2 0-70.4l-51.2-44.8c-12.8-6.4-25.6-12.8-32-12.8zM979.2 409.6h-64c-25.6 0-51.2 19.2-51.2 51.2s19.2 51.2 51.2 51.2h64c25.6 0 51.2-19.2 51.2-51.2s-25.6-51.2-51.2-51.2zM844.8 76.8c-12.8 0-25.6 6.4-32 12.8l-44.8 44.8c-19.2 19.2-19.2 51.2 0 70.4s51.2 19.2 70.4 0l44.8-44.8c19.2-19.2 19.2-51.2 0-70.4-12.8-6.4-25.6-12.8-38.4-12.8zM518.4-64c-25.6 0-51.2 19.2-51.2 51.2v64c0 25.6 19.2 51.2 51.2 51.2s51.2-19.2 51.2-51.2v-64c0-32-25.6-51.2-51.2-51.2zM192 64c-12.8 0-25.6 6.4-32 12.8-19.2 19.2-19.2 51.2 0 70.4l38.4 44.8c19.2 19.2 51.2 19.2 70.4 0s19.2-51.2 0-70.4l-44.8-44.8c-12.8-6.4-19.2-12.8-32-12.8zM108.8 390.4h-64c-25.6 0-44.8 25.6-44.8 51.2s19.2 51.2 51.2 51.2h64c25.6 0 51.2-19.2 51.2-51.2s-32-51.2-57.6-51.2zM224 678.4c-12.8 0-25.6 6.4-32 12.8l-44.8 44.8c-19.2 19.2-19.2 51.2 0 70.4s51.2 19.2 70.4 0l38.4-44.8c19.2-19.2 19.2-51.2 0-70.4-6.4-6.4-19.2-12.8-32-12.8z" />
<glyph unicode="&#xe615;" glyph-name="dark" d="M710.4 224c-166.4 0-307.2 134.4-307.2 307.2 0 140.8 96 256 224 294.4-32 0-64 6.4-96 6.4-211.2 0-384-172.8-384-384s172.8-384 384-384c147.2 0 275.2 83.2 339.2 211.2-44.8-32-102.4-51.2-160-51.2z" />
<glyph unicode="&#xe616;" glyph-name="browse" d="M905.216 579.072h-786.432c-43.691 0-43.691-21.845-43.691-43.691l36.409-393.216c0-21.845 7.282-43.691 50.973-43.691h706.333c43.691 0 43.691 21.845 50.973 43.691l29.127 393.216c0 21.845 0 43.691-43.691 43.691zM876.089 673.735c-7.282 21.845-29.127 36.409-50.973 36.409h-298.553c-21.845 0-58.254 14.563-72.818 29.127l-29.127 29.127c-14.563 14.563-50.973 29.127-72.818 29.127h-145.635c-21.845 0-43.691-21.845-50.973-43.691l-7.282-116.509h742.741l-14.563 36.409z" />
<glyph unicode="&#xe617;" glyph-name="license" d="M505.6 960c-281.6-6.4-512-236.8-505.6-518.4s236.8-512 518.4-505.6c281.6 6.4 512 236.8 505.6 518.4s-236.8 512-518.4 505.6zM518.4 44.8c-224 0-409.6 172.8-409.6 396.8s172.8 409.6 396.8 409.6c224 0 409.6-172.8 409.6-396.8 6.4-224-172.8-409.6-396.8-409.6zM659.2 556.8c-32 0-64 25.6-102.4 25.6-76.8 0-115.2-64-115.2-134.4 0-64 38.4-134.4 108.8-134.4 32 0 83.2 25.6 96 25.6 32 0 57.6-25.6 57.6-57.6 0-70.4-115.2-89.6-160-89.6-140.8 0-236.8 115.2-236.8 256 0 134.4 96 256 236.8 256 51.2 0 160-19.2 160-83.2 6.4-25.6-12.8-64-44.8-64z" />
<glyph unicode="&#xe618;" glyph-name="stats" d="M883.2 544c-19.2-44.8-38.4-89.6-51.2-134.4 44.8-64 64-134.4 64-217.6v-64h128v64c0 134.4-51.2 262.4-140.8 352zM844.8 793.6c0 0-377.6-460.8-416-524.8-25.6-44.8-12.8-102.4 32-128s102.4-12.8 128 32c38.4 64 256 620.8 256 620.8zM601.6 697.6c-32 6.4-57.6 6.4-89.6 6.4-281.6 0-512-230.4-512-512v-64h128v64c0 211.2 166.4 377.6 377.6 384 32 38.4 64 83.2 96 121.6z" />
<glyph unicode="&#xe619;" glyph-name="share" horiz-adv-x="960" d="M936 832c-18-6-906-318-924-324-12-6-18-18 0-24s198-78 198-78v0l120-48c0 0 564 414 576 420 6 6 18-6 12-12s-408-444-408-444v0l-30-24 30-18c0 0 240-132 258-138s36 0 42 18c0 18 144 636 150 648 6 18-6 30-24 24zM324 76c0-12 6-18 18-6s150 132 150 132l-168 84v-210z" />
<glyph unicode="&#xe61a;" glyph-name="back" d="M905.75 532.375h-466.875l174.375 174.375-118.125 118.125-376.875-376.875 376.875-376.875 118.125 118.125-174.375 174.375h466.875z" />
<glyph unicode="&#xe61b;" glyph-name="organization" horiz-adv-x="896" d="M64 800v-403.2c0-217.6 166.4-390.4 384-390.4s384 172.8 384 390.4v403.2h-768.001z" />
<glyph unicode="&#xe61c;" glyph-name="recent-activity" d="M857.6 825.6h-44.8v-102.4h-160v102.4h-288v-102.4h-153.6v102.4h-44.8c-57.6 0-102.4-44.8-102.4-96v-595.2c0-57.6 44.8-102.4 102.4-102.4h697.6c57.6 0 102.4 44.8 102.4 102.4v595.2c-6.4 51.2-51.2 96-108.8 96zM857.6 134.4h-691.2v396.8h697.6v-396.8zM320 928h-64v-166.4h64v166.4zM768 928h-64v-166.4h64v166.4z" />
<glyph unicode="&#xe61d;" glyph-name="view-list" d="M315.125 673c0-16.875-11.25-28.125-28.125-28.125h-140.625c-16.875 0-28.125 11.25-28.125 28.125v140.625c0 16.875 11.25 28.125 28.125 28.125h140.625c16.875 0 28.125-11.25 28.125-28.125v-140.625zM315.125 374.875c0-16.875-11.25-28.125-28.125-28.125h-140.625c-16.875 0-28.125 16.875-28.125 28.125v140.625c0 16.875 11.25 28.125 28.125 28.125h140.625c16.875 0 28.125-11.25 28.125-28.125v-140.625zM315.125 82.375c0-16.875-11.25-28.125-28.125-28.125h-140.625c-16.875 0-28.125 11.25-28.125 28.125v140.625c0 16.875 11.25 28.125 28.125 28.125h140.625c16.875 0 28.125-11.25 28.125-28.125v-140.625zM905.75 82.375c0-16.875-11.25-28.125-28.125-28.125h-450c-16.875 0-28.125 11.25-28.125 28.125v140.625c0 16.875 11.25 28.125 28.125 28.125h450c16.875 0 28.125-11.25 28.125-28.125v-140.625zM905.75 374.875c0-16.875-11.25-28.125-28.125-28.125h-450c-16.875 0-28.125 16.875-28.125 28.125v140.625c0 16.875 11.25 28.125 28.125 28.125h450c16.875 0 28.125-11.25 28.125-28.125v-140.625zM905.75 673c0-16.875-11.25-28.125-28.125-28.125h-450c-16.875 0-28.125 11.25-28.125 28.125v140.625c0 16.875 11.25 28.125 28.125 28.125h450c16.875 0 28.125-11.25 28.125-28.125v-140.625z" />
<glyph unicode="&#xe61e;" glyph-name="view-thumbs" d="M455.75 560.5c0-28.125-22.5-56.25-56.25-56.25h-225c-28.125 0-56.25 28.125-56.25 56.25v225c0 28.125 28.125 56.25 56.25 56.25h225c33.75 0 56.25-28.125 56.25-56.25v-225zM455.75 110.5c0-33.75-22.5-56.25-56.25-56.25h-225c-28.125 0-56.25 22.5-56.25 56.25v225c0 33.75 28.125 56.25 56.25 56.25h225c33.75 0 56.25-22.5 56.25-56.25v-225zM905.75 560.5c0-28.125-22.5-56.25-56.25-56.25h-225c-33.75 0-56.25 28.125-56.25 56.25v225c0 28.125 22.5 56.25 56.25 56.25h225c33.75 0 56.25-28.125 56.25-56.25v-225zM905.75 110.5c0-33.75-22.5-56.25-56.25-56.25h-225c-33.75 0-56.25 22.5-56.25 56.25v225c0 33.75 22.5 56.25 56.25 56.25h225c33.75 0 56.25-22.5 56.25-56.25v-225z" />
<glyph unicode="&#xe61f;" glyph-name="maximize" d="M576 774.4l96-76.8-121.6-128 83.2-83.2 121.6 121.6 83.2-96v256h-262.4zM390.4 409.6l-121.6-121.6-83.2 96v-256h256l-102.4 83.2 121.6 121.6-70.4 76.8zM883.2 0h-742.4c-38.4 0-76.8 38.4-76.8 76.8v742.4c0 38.4 38.4 76.8 76.8 76.8h736c44.8 0 83.2-38.4 83.2-76.8v-736c0-44.8-38.4-83.2-76.8-83.2zM166.4 819.2c-12.8 0-25.6-12.8-25.6-25.6v-691.2c0-12.8 12.8-25.6 25.6-25.6h691.2c12.8 0 25.6 12.8 25.6 25.6v691.2c0 12.8-12.8 25.6-25.6 25.6h-691.2z" />
<glyph unicode="&#xe620;" glyph-name="arrow-right" d="M729.6 448l-435.2 320v-640z" />
<glyph unicode="&#xe621;" glyph-name="arrow-down" d="M512 230.4l320 435.2h-640z" />
<glyph unicode="&#xe622;" glyph-name="arrow-left" d="M294.4 448l435.2-320v640z" />
<glyph unicode="&#xe623;" glyph-name="logout" d="M748.8 364.8h-224v166.4h224v76.8l224-160-224-160zM460.8 0v896l-320-64v-768zM748.8 211.2v-83.2h-192v-64h256v192zM748.8 684.8l64-44.8v192h-256v-64h192z" />
<glyph unicode="&#xe624;" glyph-name="move" d="M461.027 331.491l167.481 167.481v-131.072h80.099v276.707h-269.426v-80.099h131.072l-167.481-167.481zM868.807 804.807v-633.515h-633.515v633.515h633.515zM912.498 884.907h-720.896c-21.845 0-36.409-14.563-36.409-36.409v-713.614c0-21.845 14.563-36.409 36.409-36.409h713.614c21.845 0 36.409 14.563 36.409 36.409v713.614c7.282 21.845-7.282 36.409-29.127 36.409v0zM548.409 448c0 21.845-14.563 36.409-36.409 36.409h-400.498c-21.845 0-36.409-14.563-36.409-36.409v-393.216c0-29.127 14.563-43.691 36.409-43.691h400.498c21.845 0 36.409 14.563 36.409 36.409v400.498z" />
<glyph unicode="&#xe625;" glyph-name="ungroup" d="M288 0h-224v896h224v-102.4h-121.6v-691.2h121.6zM960 0h-224v102.4h121.6v691.2h-121.6v102.4h224z" />
<glyph unicode="&#xe626;" glyph-name="group" d="M288 0h-224v896h224v-102.4h-121.6v-691.2h121.6zM960 0h-224v102.4h121.6v691.2h-121.6v102.4h224zM723.2 582.4l-204.8 108.8c-6.4 0-12.8 0-19.2 0l-198.4-108.8c-6.4-6.4-12.8-12.8-12.8-19.2v-224c0-6.4 6.4-12.8 12.8-19.2l204.8-115.2c0 0 6.4 0 6.4 0s6.4 0 6.4 0l204.8 115.2c6.4 6.4 12.8 12.8 12.8 19.2v224c0 6.4-6.4 12.8-12.8 19.2z" />
<glyph unicode="&#xe627;" glyph-name="subscription" d="M153.6 608l-19.2 134.4 652.8 115.2 44.8-249.6h57.6l-57.6 313.6-761.6-134.4 32-179.2zM640 640c-19.2 83.2-89.6 134.4-172.8 121.6-76.8-12.8-128-83.2-121.6-153.6h134.4c-12.8 0-19.2 6.4-25.6 6.4-6.4 6.4-12.8 12.8-12.8 25.6s0 19.2 6.4 32c6.4 6.4 12.8 12.8 25.6 19.2v19.2h19.2l6.4-19.2c12.8 0 25.6 0 32-12.8s12.8-19.2 12.8-32v0h-38.4c0 6.4-6.4 12.8-6.4 12.8-6.4 0-6.4 6.4-12.8 6.4s-6.4 0-12.8-6.4c0-6.4 0-6.4 0-12.8s6.4-6.4 6.4-6.4c0 0 6.4-6.4 12.8-6.4 19.2-6.4 32-12.8 38.4-19.2 6.4 0 6.4-6.4 12.8-12.8h96c0 12.8 0 25.6 0 38.4zM787.2 345.6v-140.8c0-19.2 12.8-32 32-32h140.8v204.8h-140.8c-19.2 0-32-12.8-32-32zM819.2 140.8c-32 0-64 25.6-64 64v140.8c0 32 25.6 64 64 64h108.8v134.4c0 19.2-12.8 32-32 32h-800c-19.2 0-32-12.8-32-32v-537.6c0-19.2 12.8-32 32-32h800c19.2 0 32 12.8 32 32v134.4h-108.8z" />
<glyph unicode="&#xe628;" glyph-name="logo" d="M1024 480c-12.8 115.2-108.8 204.8-224 211.2-76.8 6.4-147.2-25.6-192-76.8-51.2-57.6-134.4-57.6-185.6 0-51.2 51.2-115.2 83.2-192 76.8-121.6-12.8-217.6-102.4-230.4-211.2-19.2-147.2 96-268.8 243.2-268.8 70.4 0 134.4 32 179.2 76.8 51.2 57.6 134.4 57.6 185.6 0 44.8-44.8 108.8-76.8 179.2-76.8 140.8-6.4 249.6 121.6 236.8 268.8zM358.4 428.8c-6.4-51.2-44.8-89.6-96-96-83.2-12.8-153.6 51.2-140.8 134.4 6.4 51.2 51.2 89.6 96 96 83.2 12.8 153.6-51.2 140.8-134.4zM902.4 428.8c-6.4-51.2-51.2-89.6-96-96-83.2-12.8-153.6 51.2-140.8 134.4 6.4 51.2 51.2 89.6 96 96 83.2 12.8 153.6-51.2 140.8-134.4z" />
<glyph unicode="&#xe629;" glyph-name="restore" d="M576 896c-243.2 0-441.6-192-448-435.2h-128l198.4-224 198.4 224h-153.6c6.4 179.2 153.6 320 332.8 320 185.6 0 332.8-153.6 332.8-339.2s-147.2-339.2-332.8-339.2c-76.8 0-140.8 25.6-198.4 64l-76.8-83.2c76.8-44.8 172.8-83.2 275.2-83.2 249.6 0 448 198.4 448 448s-198.4 448-448 448z" />
<glyph unicode="&#xe62a;" glyph-name="link" d="M921.6 857.6c-25.6 25.6-64 25.6-89.6 0l-96-96-6.4 6.4c-83.2 83.2-230.4 83.2-313.6 0l-217.6-217.6c-89.6-89.6-89.6-230.4 0-313.6l6.4-6.4-96-96c-25.6-25.6-25.6-64 0-89.6 12.8-12.8 32-19.2 44.8-19.2s32 6.4 44.8 19.2l96 96 6.4-6.4c44.8-44.8 96-64 160-64 57.6 0 115.2 25.6 160 64l211.2 211.2c89.6 89.6 89.6 230.4 0 313.6l-6.4 6.4 96 96c19.2 25.6 19.2 70.4 0 96zM736 569.6c38.4-38.4 38.4-96 0-134.4l-211.2-211.2c-38.4-38.4-102.4-38.4-134.4 0l-6.4 6.4 89.6 89.6c25.6 25.6 25.6 64 0 89.6s-64 25.6-89.6 0l-89.6-89.6-6.4 6.4c-38.4 38.4-38.4 96 0 134.4l211.2 211.2c19.2 19.2 44.8 25.6 70.4 25.6s51.2-12.8 70.4-25.6v-6.4l-83.2-83.2c-25.6-25.6-25.6-64 0-89.6 12.8-12.8 32-19.2 44.8-19.2s32 6.4 44.8 19.2l89.6 76.8z" />
<glyph unicode="&#xe62b;" glyph-name="window" d="M928 832h-832c-51.2 0-96-44.8-96-96v-576c0-51.2 44.8-96 96-96h832c51.2 0 96 44.8 96 96v576c0 51.2-44.8 96-96 96zM928 128h-832c-19.2 0-32 12.8-32 32v422.4h896v-422.4c0-19.2-12.8-32-32-32z" />
<glyph unicode="&#xe62c;" glyph-name="scene-settings" d="M928 832h-832c-51.2 0-96-38.4-96-96v-576c0-51.2 44.8-96 96-96h832c51.2 0 96 44.8 96 96v576c0 57.6-44.8 96-96 96zM876.8 454.4c0 128 44.8 224 83.2 275.2v-556.8c-32 51.2-83.2 153.6-83.2 281.6zM147.2 448c0-128-51.2-224-83.2-281.6v563.2c32-51.2 83.2-153.6 83.2-281.6zM179.2 448c0 140.8-51.2 243.2-89.6 300.8 76.8-32 224-83.2 422.4-83.2s345.6 51.2 422.4 89.6c-32-57.6-89.6-160-89.6-300.8 0-121.6 44.8-224 76.8-281.6-83.2 32-224 76.8-403.2 76.8-198.4 0-345.6-51.2-422.4-89.6 32 57.6 83.2 160 83.2 288zM121.6 768h780.8c-83.2-32-217.6-70.4-390.4-70.4s-313.6 38.4-390.4 70.4zM108.8 128c76.8 32 224 83.2 416 83.2s339.2-51.2 409.6-83.2c0 0 0 0 0 0h-825.6z" />
<glyph unicode="&#xe62d;" glyph-name="dragger" d="M768 512h128v-128h-128v128zM448 512h128v-128h-128v128zM128 512h128v-128h-128v128z" />
<glyph unicode="&#xe62e;" glyph-name="transparency" d="M326.375 448h180v-180h-180v180zM512 628h180v-180h-180v180zM118.25 841.75v-787.5h787.5v787.5h-787.5zM697.625 104.875v157.5h-185.625v-157.5h-185.625v163.125h-157.5v180h157.5v185.625h-157.5v157.5h157.5v-157.5h185.625v157.5h185.625v-163.125h157.5v-180h-157.5v-180h157.5v-157.5h-157.5z" />
<glyph unicode="&#xe62f;" glyph-name="entity-quad" d="M512-64c-6.4 0-6.4 0-12.8 6.4l-422.4 243.2c-6.4 0-12.8 12.8-12.8 19.2v486.4c0 6.4 6.4 19.2 12.8 25.6l422.4 243.2c6.4 0 19.2 0 25.6-6.4l422.4-243.2c6.4 0 12.8-12.8 12.8-19.2v-486.4c0-6.4-6.4-19.2-12.8-25.6l-422.4-243.2c-6.4 0-6.4 0-12.8 0zM121.6 224l390.4-230.4 390.4 224v454.4l-390.4 230.4-390.4-230.4v-448zM761.6 595.2l-121.6 121.6c-6.4 6.4-12.8 6.4-19.2 6.4s-12.8-6.4-12.8-12.8l-19.2-51.2c0-6.4 0-12.8 6.4-19.2l89.6-89.6c6.4-6.4 6.4-6.4 12.8-6.4 0 0 6.4 0 6.4 0l51.2 19.2c6.4 0 12.8 6.4 12.8 12.8s-6.4 19.2-6.4 19.2zM665.6 518.4l-102.4 102.4c0 0-6.4 6.4-12.8 0l-179.2-76.8c-6.4 0-6.4-6.4-6.4-6.4s6.4-121.6-115.2-243.2c-6.4-6.4-6.4-12.8 0-12.8l19.2-25.6 160 160c0 6.4 0 6.4 0 12.8 0 25.6 19.2 38.4 38.4 38.4 25.6 0 38.4-19.2 38.4-38.4 0-25.6-19.2-44.8-38.4-44.8-6.4 0-6.4 0-12.8 0l-160-160c6.4-6.4 19.2-19.2 19.2-19.2s6.4-6.4 6.4-6.4c0 0 0 0 0 0s6.4 0 6.4 6.4c96 102.4 204.8 115.2 236.8 115.2 6.4 0 12.8 0 12.8 0 6.4 0 6.4 0 12.8 6.4l76.8 185.6c0 0 0 6.4 0 6.4z" />
<glyph unicode="&#xe630;" glyph-name="vr" d="M1024 544h-1024v-320c0-19.2 12.8-32 32-32h396.8c12.8 0 25.6 6.4 32 19.2 12.8 25.6 25.6 70.4 57.6 70.4s44.8-38.4 51.2-70.4c0-12.8 12.8-19.2 25.6-19.2h396.8c19.2 0 32 12.8 32 32v320zM416 332.8c0-38.4-25.6-64-64-64h-224c-38.4 0-64 32-64 64v64c0 38.4 25.6 64 64 64h224c38.4 0 64-25.6 64-64v-64zM960 300.8c0-19.2-12.8-32-32-32h-288c-19.2 0-32 12.8-32 32v128c0 19.2 12.8 32 32 32h288c19.2 0 32-12.8 32-32v-128zM0 576c0 0 320 108.8 390.4 128s108.8-70.4 89.6-89.6-57.6 12.8-96 6.4-96-44.8-96-44.8h-288zM1024 576c0 0-320 102.4-390.4 121.6-64 25.6-108.8-70.4-89.6-89.6s57.6 19.2 96 12.8 96-44.8 96-44.8h288z" />
<glyph unicode="&#xe631;" glyph-name="social-google" d="M460.8 595.2c-12.8 44.8-32 57.6-64 57.6-6.4 0-6.4 0-12.8 0-12.8-6.4-19.2-19.2-25.6-38.4s-6.4-38.4 0-57.6c12.8-38.4 38.4-64 64-64 6.4 0 6.4 0 12.8 0 25.6 12.8 38.4 57.6 25.6 102.4zM512 960c-281.6 0-512-230.4-512-512s230.4-512 512-512c281.6 0 512 230.4 512 512s-230.4 512-512 512zM480 230.4c-32-12.8-64-19.2-83.2-19.2 0 0-6.4 0-6.4 0s0 0 0 0c-19.2 0-128 6.4-128 102.4s115.2 102.4 147.2 102.4v0c-12.8 19.2-6.4 51.2-6.4 51.2s-6.4 0-6.4 0c-12.8 0-38.4 0-57.6 19.2-32 12.8-44.8 38.4-44.8 83.2 0 115.2 121.6 115.2 128 115.2h121.6c0-12.8-25.6-19.2-44.8-19.2-6.4 0-19.2 0-19.2-6.4 32-19.2 38.4-44.8 38.4-83.2 0-44.8-19.2-70.4-38.4-83.2-6.4-12.8-19.2-19.2-19.2-32s12.8-19.2 25.6-32 57.6-51.2 57.6-96c0-51.2-19.2-83.2-64-102.4zM755.2 448h-83.2v-83.2h-51.2v83.2h-83.2v51.2h83.2v83.2h51.2v-83.2h83.2v-51.2zM416 384c0 0-6.4 0-6.4 0-25.6 0-44.8-6.4-64-25.6-12.8-12.8-25.6-32-25.6-51.2 0-38.4 44.8-57.6 89.6-57.6 51.2 6.4 83.2 32 76.8 70.4 6.4 38.4-25.6 64-70.4 64z" />
<glyph unicode="&#xe632;" glyph-name="social-facebook" d="M512 960c-281.6 0-512-230.4-512-512s230.4-512 512-512c281.6 0 512 230.4 512 512s-230.4 512-512 512zM633.6 608h-76.8c-12.8 0-19.2-12.8-19.2-32v-57.6h96v-76.8h-96v-236.8h-89.6v236.8h-83.2v83.2h83.2v44.8c0 64 44.8 121.6 108.8 121.6h76.8v-83.2z" />
<glyph unicode="&#xe633;" glyph-name="social-twitter" d="M512 960c-281.6 0-512-230.4-512-512s230.4-512 512-512c281.6 0 512 230.4 512 512s-230.4 512-512 512zM723.2 537.6c0-6.4 0-6.4 0-12.8 0-134.4-102.4-288-288-288-57.6 0-108.8 19.2-153.6 44.8 6.4 0 12.8 0 25.6 0 44.8 0 89.6 19.2 128 44.8-51.2 0-89.6 32-102.4 70.4 6.4 0 12.8 0 19.2 0s19.2 0 25.6 6.4c-44.8 6.4-76.8 44.8-76.8 96 0 0 0 0 0 0 12.8-6.4 32-12.8 44.8-12.8-25.6 19.2-44.8 51.2-44.8 83.2 0 19.2 6.4 38.4 12.8 51.2 51.2-64 121.6-102.4 204.8-102.4 0 6.4 0 12.8 0 25.6 0 51.2 44.8 96 102.4 96 32 0 57.6-12.8 76.8-32 25.6 6.4 44.8 12.8 64 25.6-6.4-25.6-25.6-44.8-44.8-57.6 19.2 0 38.4 6.4 57.6 12.8-19.2-19.2-32-32-51.2-51.2z" />
<glyph unicode="&#xe634;" glyph-name="feedback" d="M896 825.6c38.4 0 64-32 64-64v-492.8c0-38.4-32-64-64-64h-531.2l-108.8-108.8v108.8h-128c-38.4 0-64 32-64 64v492.8c0 38.4 25.6 64 64 64h768zM896 889.6h-768c-70.4 0-128-57.6-128-128v-499.2c0-70.4 57.6-128 128-128h57.6v-198.4l198.4 198.4h512c70.4 0 128 57.6 128 128v499.2c0 70.4-57.6 128-128 128v0zM512 672c-57.6 57.6-217.6 57.6-217.6-96s217.6-256 217.6-256 217.6 102.4 217.6 256-160 153.6-217.6 96z" />
<glyph unicode="&#xe635;" glyph-name="physics-rigid" d="M512 896c-249.6 0-448-198.4-448-448s198.4-448 448-448c249.6 0 448 198.4 448 448s-198.4 448-448 448zM121.6 448h390.4v390.4c217.6 0 390.4-172.8 390.4-390.4 0 0 0 0 0 0h-390.4v-390.4c0 0 0 0 0 0-217.6 0-390.4 172.8-390.4 390.4z" />
<glyph unicode="&#xe636;" glyph-name="physics-static" d="M870.4 416h-384v-390.4c0 0 0 0 0 0-217.6 0-390.4 172.8-390.4 390.4h390.4v448c0 0 0 0 0 0-249.6 0-448-198.4-448-448s198.4-448 448-448c243.2 0 448 198.4 448 448h-64zM985.6 876.8l-51.2 51.2-140.8-140.8-134.4 140.8-51.2-51.2 134.4-140.8-140.8-140.8 51.2-51.2 140.8 140.8 140.8-140.8 51.2 51.2-134.4 140.8z" />
<glyph unicode="&#xe637;" glyph-name="physics-movable" d="M870.4 409.6h-384v-390.4c0 0 0 0 0 0-217.6 0-390.4 172.8-390.4 390.4h390.4v448c-249.6 0-448-198.4-448-448s198.4-448 448-448c243.2 0 448 198.4 448 448h-64zM723.2 819.2h57.6l-89.6 115.2-89.6-115.2h64v-211.2h211.2v-57.6l108.8 89.6-108.8 83.2v-57.6h-153.6z" />
<glyph unicode="&#xe638;" glyph-name="physics-collider" d="M896 224l-147.2-83.2 32-51.2 160 96c6.4 6.4 12.8 12.8 12.8 25.6v185.6h-64v-172.8zM512 0l-147.2 83.2-32-51.2 160-96c6.4 0 12.8 0 19.2 0s12.8 0 12.8 6.4l160 96-32 51.2-140.8-89.6zM128 396.8h-64v-185.6c0-12.8 6.4-19.2 12.8-25.6l160-96 32 51.2-140.8 83.2v172.8zM128 672l147.2 83.2-32 51.2-166.4-89.6c-6.4-6.4-12.8-19.2-12.8-25.6v-185.6h64v166.4zM512 896l147.2-83.2 32 51.2-166.4 89.6c-6.4 6.4-19.2 6.4-25.6 0l-166.4-89.6 32-51.2 147.2 83.2zM947.2 716.8l-160 96-32-51.2 140.8-89.6v-166.4h64v185.6c0 6.4-6.4 19.2-12.8 25.6zM512 736c-6.4 0-6.4 0-12.8-6.4l-230.4-128c-12.8-6.4-19.2-12.8-19.2-25.6v-256c0-12.8 6.4-19.2 12.8-25.6l230.4-128c6.4 0 6.4 0 12.8 0s6.4 0 12.8 0l230.4 128c6.4 6.4 12.8 12.8 12.8 25.6v256c0 12.8-6.4 19.2-12.8 25.6l-230.4 128c0 0 0 6.4-6.4 6.4zM537.6 236.8v198.4l179.2 96v-198.4l-179.2-96zM307.2 339.2v198.4l179.2-96v-198.4l-179.2 96z" />
<glyph unicode="&#xe639;" glyph-name="box" d="M510.912 960l-510.912-253.184v-578.656l515.264-192.16 510.912 253.184v578.656l-515.264 192.16zM481.408 15.136l-418.176 155.936v470.176l418.176-155.936v-470.176zM510.912 541.824l-400.064 149.248 404.608 201.216 400.064-149.216-404.608-201.216zM960.608 227.584l-418.176-207.904v467.808l418.176 207.904v-467.808z" />
<glyph unicode="&#xe63a;" glyph-name="spline" d="M704 896v-108.8c-268.8-51.2-480-262.4-531.2-531.2h-108.8v-256h256v256h-83.2c51.2 230.4 236.8 416 467.2 467.2v-83.2h256v256h-256z" />
<glyph unicode="&#xe63b;" glyph-name="spline-control" d="M704 896v-108.8c0 0 0 0 0 0v0h-32v-6.4c-12.8 0-19.2-6.4-32-6.4v12.8h-32v-25.6c-224-83.2-390.4-275.2-435.2-505.6h-108.8v-256h256v256h-83.2c51.2 230.4 236.8 416 467.2 467.2v-83.2h256v256h-256zM480 787.2h32v-32h-32v32zM352 787.2h32v-32h-32v32zM544 787.2h32v-32h-32v32zM416 787.2h32v-32h-32v32zM288 787.2h32v-32h-32v32zM224 787.2h32v-32h-32v32zM64 832h128v-128h-128v128z" />
<glyph unicode="&#xe63c;" glyph-name="pro" d="M787.2 844.8h-544l-179.2-288 448-512 448 512-172.8 288zM390.4 576l121.6 211.2 121.6-211.2h-243.2zM633.6 544l-121.6-403.2-121.6 403.2h243.2zM358.4 544l108.8-358.4-313.6 358.4h204.8zM665.6 544h204.8l-313.6-358.4 108.8 358.4zM883.2 576h-198.4l83.2 192 115.2-192zM742.4 787.2l-83.2-192-108.8 192h192zM371.2 595.2l-83.2 192h192l-108.8-192zM262.4 768l83.2-192h-198.4l115.2 192z" />
<glyph unicode="&#xe63d;" glyph-name="download" d="M947.2 403.2l-153.6 371.2c-12.8 25.6-44.8 44.8-70.4 44.8h-108.8l19.2-204.8h134.4l-256-204.8-256 211.2h134.4l19.2 204.8h-102.4c-25.6 0-57.6-19.2-70.4-44.8l-160-377.6c-6.4-25.6-12.8-70.4-12.8-96l32-185.6c6.4-25.6 32-51.2 57.6-51.2h710.4c25.6 0 51.2 25.6 57.6 51.2l32 185.6c6.4 25.6 0 70.4-6.4 96zM876.8 275.2l-12.8-76.8c-6.4-25.6-32-51.2-57.6-51.2h-588.8c-25.6 0-51.2 25.6-57.6 51.2l-12.8 76.8c-6.4 25.6 19.2 51.2 44.8 51.2h640c25.6 0 51.2-25.6 44.8-51.2z" />
<glyph unicode="&#xe63e;" glyph-name="key-command" horiz-adv-x="960" d="M582.4 467.2c44.8 0 76.8 38.4 76.8 76.8s-38.4 76.8-76.8 76.8c-44.8 0-76.8-38.4-76.8-76.8v-19.2h-44.8v25.6c0 44.8-38.4 76.8-76.8 76.8s-83.2-38.4-83.2-76.8 38.4-76.8 76.8-76.8h19.2v-38.4h-19.2c-38.4-6.4-76.8-44.8-76.8-89.6s38.4-76.8 76.8-76.8 76.8 38.4 76.8 76.8v25.6h38.4v-19.2c0-44.8 38.4-76.8 76.8-76.8s76.8 38.4 76.8 76.8-38.4 76.8-76.8 76.8h-12.8v38.4h25.6zM582.4 524.8h-25.6v25.6c0 12.8 12.8 19.2 19.2 19.2 12.8 0 19.2-12.8 19.2-19.2 6.4-19.2 0-25.6-12.8-25.6zM582.4 326.4c-12.8 0-19.2 12.8-19.2 19.2v25.6h19.2c12.8 0 19.2-12.8 19.2-19.2 0-19.2-6.4-25.6-19.2-25.6zM499.2 467.2v-38.4h-38.4v38.4h38.4zM377.6 569.6c12.8 0 19.2-12.8 19.2-19.2v-19.2h-19.2c-12.8 0-19.2 12.8-19.2 19.2 0 12.8 6.4 19.2 19.2 19.2zM377.6 371.2h19.2v-19.2c0-12.8-12.8-19.2-19.2-19.2-12.8 0-19.2 12.8-19.2 19.2 0 12.8 6.4 19.2 19.2 19.2zM864 96h-768c-51.2 0-96 44.8-96 96v512c0 51.2 44.8 96 96 96h768c51.2 0 96-44.8 96-96v-512c0-51.2-44.8-96-96-96zM96 736c-19.2 0-32-12.8-32-32v-512c0-19.2 12.8-32 32-32h768c19.2 0 32 12.8 32 32v512c0 19.2-12.8 32-32 32h-768z" />
<glyph unicode="&#xe63f;" glyph-name="key-shift" horiz-adv-x="960" d="M480 531.2l64-108.8h-44.8v-128h-38.4v128h-44.8l64 108.8zM480 659.2l-57.6-96-64-108.8-57.6-89.6h89.6v-128h172.8v128h89.6l-51.2 89.6-70.4 115.2-51.2 89.6zM864 96h-768c-51.2 0-96 44.8-96 96v512c0 51.2 44.8 96 96 96h768c51.2 0 96-44.8 96-96v-512c0-51.2-44.8-96-96-96zM96 736c-19.2 0-32-12.8-32-32v-512c0-19.2 12.8-32 32-32h768c19.2 0 32 12.8 32 32v512c0 19.2-12.8 32-32 32h-768z" />
<glyph unicode="&#xe640;" glyph-name="key-backspace" horiz-adv-x="960" d="M377.6 332.8v76.8h345.6v76.8h-345.6v76.8l-140.8-115.2zM864 96h-768c-51.2 0-96 44.8-96 96v512c0 51.2 44.8 96 96 96h768c51.2 0 96-44.8 96-96v-512c0-51.2-44.8-96-96-96zM96 736c-19.2 0-32-12.8-32-32v-512c0-19.2 12.8-32 32-32h768c19.2 0 32 12.8 32 32v512c0 19.2-12.8 32-32 32h-768z" />
<glyph unicode="&#xe641;" glyph-name="camera-pan" d="M524.8 896h-32c-153.6 0-275.2-121.6-275.2-275.2v-345.6c0-153.6 121.6-275.2 275.2-275.2h32c153.6 0 275.2 121.6 275.2 268.8v352c0 153.6-121.6 275.2-275.2 275.2zM742.4 268.8c0-121.6-96-217.6-217.6-217.6h-32c-121.6 0-217.6 96-217.6 217.6v352c0 121.6 96 217.6 217.6 217.6h32c121.6 0 217.6-96 217.6-217.6v-352zM512 729.6c-25.6 0-44.8-19.2-44.8-44.8v-108.8c0-25.6 19.2-44.8 44.8-44.8 19.2 0 38.4 19.2 44.8 38.4v115.2c0 25.6-19.2 44.8-44.8 44.8zM166.4 364.8v166.4l-140.8-83.2zM857.6 531.2v-166.4l140.8 83.2z" />
<glyph unicode="&#xe642;" glyph-name="error" d="M512 896c-249.6 0-448-198.4-448-448s198.4-448 448-448 448 198.4 448 448-198.4 448-448 448zM736 288l-64-64-160 166.4-166.4-166.4-64 64 172.8 160-166.4 160 64 64 160-160 160 160 64-64-160-160 160-160z" />
<glyph unicode="&#xe643;" glyph-name="home" d="M947.2 435.2l-396.8 396.8c-19.2 19.2-57.6 19.2-76.8 0l-396.8-396.8c-19.2-25.6-12.8-38.4 12.8-38.4h83.2v-307.2c0-19.2 0-38.4 38.4-38.4h192v307.2h204.8v-307.2h204.8c32 0 32 19.2 32 38.4v307.2h83.2c32 0 38.4 12.8 19.2 38.4z" />
<glyph unicode="&#xe644;" glyph-name="email" d="M64 793.6v-684.8h896v684.8h-896zM864 736l-352-307.2-352 307.2h704zM115.2 160v550.4l396.8-352 396.8 345.6v-550.4h-793.6z" />
<glyph unicode="&#xe645;" glyph-name="camera-pan-left" d="M326.4 620.8v-96h160v256c-89.6 0-160-70.4-160-160zM166.4 364.8v166.4l-140.8-83.2zM857.6 531.2v-166.4l140.8 83.2zM524.8 896h-32c-153.6 0-275.2-121.6-275.2-275.2v-352c0-153.6 121.6-275.2 275.2-275.2h32c153.6 0 275.2 121.6 275.2 275.2v352c0 153.6-121.6 275.2-275.2 275.2zM742.4 275.2c0-121.6-96-217.6-217.6-217.6h-32c-121.6 0-217.6 96-217.6 217.6v345.6c0 121.6 96 217.6 217.6 217.6h32c121.6 0 217.6-96 217.6-217.6v-345.6z" />
<glyph unicode="&#xe646;" glyph-name="camera-rotate" d="M524.8 780.8v-256h160v96c6.4 89.6-70.4 160-160 160zM166.4 364.8v166.4l-140.8-83.2zM857.6 531.2v-166.4l140.8 83.2zM524.8 896h-32c-153.6 0-275.2-121.6-275.2-275.2v-352c0-153.6 121.6-275.2 275.2-275.2h32c153.6 0 275.2 121.6 275.2 275.2v352c0 153.6-121.6 275.2-275.2 275.2zM742.4 275.2c0-121.6-96-217.6-217.6-217.6h-32c-121.6 0-217.6 96-217.6 217.6v345.6c0 121.6 96 217.6 217.6 217.6h32c121.6 0 217.6-96 217.6-217.6v-345.6z" />
<glyph unicode="&#xe647;" glyph-name="camera-zoom" d="M524.8 896h-32c-147.2 0-268.8-121.6-275.2-275.2v-345.6c0-153.6 121.6-275.2 275.2-275.2h38.4c147.2 0 268.8 121.6 268.8 268.8v352c0 153.6-121.6 275.2-275.2 275.2zM742.4 268.8c0-121.6-96-217.6-217.6-217.6h-32c-121.6 0-217.6 96-217.6 217.6v352c0 121.6 96 217.6 217.6 217.6h32c121.6 0 217.6-96 217.6-217.6v-352zM512 505.6l57.6 89.6h-115.2zM454.4 659.2h115.2l-57.6 96z" />
<glyph unicode="&#xe648;" glyph-name="template" d="M2.275 957.725v-1019.449h1019.449v1019.449h-1019.449zM956.189 630.045h-240.299c-7.282 7.282-21.845 21.845-29.127 29.127v225.735h269.426v-254.862zM650.354 448c0-80.099-65.536-138.354-138.354-138.354s-138.354 58.254-138.354 138.354c0 80.099 65.536 138.354 138.354 138.354s138.354-58.254 138.354-138.354zM512 731.989c-50.973 0-101.945-14.563-138.354-43.691v196.608h283.989v-196.608c-43.691 21.845-94.663 43.691-145.635 43.691zM278.983 302.365h-211.171v291.271h211.171c-21.845-43.691-36.409-87.381-36.409-145.635 0-50.973 14.563-101.945 36.409-145.635zM512 164.011c50.973 0 101.945 14.563 138.354 43.691v-196.608h-276.707v196.608c36.409-21.845 87.381-43.691 138.354-43.691zM745.017 593.635h211.171v-291.271h-211.171c21.845 43.691 36.409 94.663 36.409 145.635 0 58.254-14.563 101.945-36.409 145.635zM337.237 884.907v-225.735c-14.563-7.282-21.845-14.563-29.127-29.127h-240.299v254.862h269.426zM67.811 265.955h233.017c7.282-14.563 21.845-21.845 29.127-36.409v-218.453h-262.144v254.862zM686.763 11.093v225.735c14.563 7.282 21.845 21.845 29.127 36.409h233.017v-262.144h-262.144zM592.099 448c0-48.259-35.861-87.381-80.099-87.381s-80.099 39.122-80.099 87.381c0 48.259 35.861 87.381 80.099 87.381s80.099-39.122 80.099-87.381z" />
<glyph unicode="&#xe649;" glyph-name="like" d="M697.6 832c-102.4 0-185.6-89.6-185.6-89.6s-83.2 89.6-185.6 89.6c-172.8 0-262.4-89.6-262.4-224 0-140.8 128-262.4 230.4-364.8s217.6-179.2 217.6-179.2 115.2 70.4 217.6 179.2 230.4 224 230.4 364.8c0 134.4-89.6 224-262.4 224z" />
<glyph unicode="&#xe64a;" glyph-name="pack" d="M902.4 704l-364.8 211.2c-12.8 6.4-38.4 6.4-57.6 0l-358.4-211.2c-19.2-6.4-32-32-32-51.2v-416c0-19.2 12.8-38.4 25.6-44.8l364.8-211.2c12.8-6.4 38.4-6.4 57.6 0l364.8 211.2c12.8 6.4 25.6 32 25.6 44.8v422.4c6.4 19.2-6.4 38.4-25.6 44.8zM512 857.6l326.4-179.2-134.4-76.8-320 185.6 128 70.4zM512 486.4l-326.4 185.6 134.4 76.8 326.4-185.6-134.4-76.8zM153.6 275.2v339.2l326.4-185.6v-371.2l-300.8 172.8c-12.8 6.4-25.6 25.6-25.6 44.8zM844.8 224l-300.8-172.8v377.6l326.4 192v-345.6c0-19.2-12.8-38.4-25.6-51.2zM652.8 345.6c-12.8 0-19.2 6.4-25.6 12.8-12.8 19.2-6.4 38.4 12.8 51.2l134.4 76.8c12.8 6.4 32 6.4 44.8-12.8 6.4-12.8 6.4-32-12.8-44.8l-134.4-76.8c-6.4 0-12.8-6.4-19.2-6.4z" />
<glyph unicode="&#xe64b;" glyph-name="clean" d="M614.4 249.6c12.8 12.8 19.2 25.6 25.6 32 32 44.8-38.4 185.6-38.4 185.6l345.6 345.6c19.2 12.8 19.2 32 6.4 44.8l-32 32c-12.8 12.8-32 12.8-44.8 0l-345.6-352c0 0-140.8 70.4-185.6 38.4-6.4-6.4-19.2-12.8-32-25.6l300.8-300.8zM262.4 512c-76.8-64-198.4-166.4-198.4-166.4l345.6-345.6c0 0 102.4 121.6 166.4 198.4l-313.6 313.6z" />
<glyph unicode="&#xe64c;" glyph-name="key-option" horiz-adv-x="896" d="M396.8 608h-134.4v-57.6h96l128-262.4h147.2v57.6h-108.8zM460.8 608h172.8v-57.6h-172.8v57.6zM704 96h-512c-51.2 0-96 44.8-96 96v512c0 51.2 44.8 96 96 96h512c51.2 0 96-44.8 96-96v-512c0-51.2-44.8-96-96-96zM192 736c-19.2 0-32-12.8-32-32v-512c0-19.2 12.8-32 32-32h512c19.2 0 32 12.8 32 32v512c0 19.2-12.8 32-32 32h-512z" />
<glyph unicode="&#xe64d;" glyph-name="fork" d="M876.089 375.182c-58.254 0-109.227-36.409-131.072-87.381-131.072 0-182.045 50.973-233.017 101.945-14.563 14.563-29.127 29.127-50.973 43.691 58.254 29.127 94.663 65.536 123.79 94.663 43.691 43.691 80.099 72.818 152.917 80.099 29.127-50.973 80.099-87.381 138.354-87.381 80.099 0 145.635 65.536 145.635 145.635s-65.536 145.635-145.635 145.635c-58.254 0-116.509-36.409-138.354-94.663-123.79-7.282-174.763-58.254-225.735-109.227s-101.945-101.945-233.017-101.945c-21.845 50.973-72.818 87.381-131.072 87.381-80.099 0-145.635-65.536-145.635-145.635s65.536-145.635 145.635-145.635c58.254 0 109.227 36.409 131.072 87.381 80.099 0 116.509-36.409 160.199-80.099 58.254-58.254 131.072-123.79 305.835-131.072 21.845-50.973 72.818-94.663 138.354-94.663 80.099 0 145.635 65.536 145.635 145.635s-72.818 145.635-152.917 145.635zM876.089 739.271c43.691 0 72.818-29.127 72.818-72.818s-29.127-72.818-72.818-72.818-72.818 29.127-72.818 72.818 29.127 72.818 72.818 72.818zM147.911 375.182c-43.691 0-72.818 29.127-72.818 72.818s29.127 72.818 72.818 72.818 72.818-29.127 72.818-72.818-29.127-72.818-72.818-72.818zM876.089 156.729c-43.691 0-72.818 29.127-72.818 72.818s29.127 72.818 72.818 72.818 72.818-29.127 72.818-72.818-29.127-72.818-72.818-72.818z" />
<glyph unicode="&#xe64e;" glyph-name="logo-goo" d="M819.2 723.2c-38.4 0-76.8-19.2-102.4-44.8-32-32-76.8-32-108.8 0-19.2 25.6-57.6 44.8-96 44.8-76.8 0-140.8-64-140.8-140.8s64-140.8 140.8-140.8c38.4 0 76.8 19.2 102.4 44.8 32 32 76.8 32 108.8 0 25.6-25.6 64-44.8 102.4-44.8 76.8 0 140.8 64 140.8 140.8-6.4 76.8-70.4 140.8-147.2 140.8zM512 512c-38.4 0-70.4 32-70.4 70.4s32 70.4 70.4 70.4c38.4 0 70.4-32 70.4-70.4s-32-70.4-70.4-70.4zM819.2 512c-38.4 0-70.4 32-70.4 70.4s32 70.4 70.4 70.4c38.4 0 70.4-32 70.4-70.4s-32-70.4-70.4-70.4zM473.6 384c-19.2 32-51.2 57.6-83.2 64-44.8 12.8-70.4 51.2-57.6 96 12.8 32 6.4 70.4-12.8 108.8-38.4 64-121.6 89.6-192 51.2-64-38.4-83.2-128-44.8-192 19.2-32 51.2-57.6 89.6-64s64-51.2 51.2-89.6c-12.8-38.4-6.4-76.8 12.8-108.8 38.4-64 121.6-89.6 192-51.2 64 32 83.2 121.6 44.8 185.6zM236.8 524.8c-32-19.2-76.8-12.8-96 25.6-19.2 32-6.4 70.4 25.6 89.6s76.8 6.4 96-25.6c19.2-32 6.4-70.4-25.6-89.6zM390.4 256c-32-19.2-76.8-6.4-96 25.6-12.8 32-6.4 70.4 25.6 89.6 38.4 19.2 76.8 12.8 96-25.6 19.2-32 6.4-70.4-25.6-89.6z" />
<glyph unicode="&#xe900;" glyph-name="html-3d" horiz-adv-x="1428" d="M712 960l-586.4-437.6 586.4-586.4 586.4 586.4-586.4 437.6zM200 522.4l512 388.4 512-388.4-512-501.2-512 501.2zM712 751.6l-287.4-229.2 287.4-264.4 287.4 264.4-287.4 229.2zM461.2 522.4l250.8 201.8 250.8-201.8-250.8-228.6-250.8 228.6z" />
</font>
</defs>
</svg>
